<svg width="256" height="256" viewBox="0 0 256 256" fill="none" xmlns="http://www.w3.org/2000/svg">
<path d="M236.424 160.45C220.375 220.347 161.659 245.255 101.763 229.206C41.8669 213.157 3.4717 162.228 19.5209 102.331C35.57 42.435 94.2859 17.5266 154.182 33.5757C214.078 49.6249 252.474 100.554 236.424 160.45Z" fill="url(#paint0_radial_340_215)"/>
<path fill-rule="evenodd" clip-rule="evenodd" d="M123.957 48.6485C163.55 21.5791 217.802 40.6943 243.125 62.9659C246.897 65.7605 251.716 71.2547 251.716 77.5216C251.715 86.701 244.273 94.1427 235.094 94.1427C233.781 94.1426 232.504 93.9889 231.279 93.7012C228.922 104.925 218.759 113.367 206.577 113.367C197.342 113.367 189.394 108.723 185.001 101.486C177.67 127.912 184.709 158.082 209.73 182.08C213.82 186.171 217.547 190.028 220.936 193.662C206.848 213.272 186.279 225.948 162.696 231.2C162.629 231.185 162.562 231.168 162.494 231.151C162.565 231.169 162.635 231.187 162.705 231.203C161.352 231.505 159.988 231.777 158.616 232.029C158.559 232.04 158.502 232.053 158.445 232.064L158.442 232.061C140.628 235.309 121.259 234.43 101.764 229.206C69.7097 220.617 43.8143 202.038 29.1251 177.441C25.7533 171.796 23.5035 166.594 22.0832 163.026C46.3814 151.41 57.6648 138.408 65.2989 127.017C82.5594 97.2079 101.663 63.8911 123.957 48.6485Z" fill="white"/>
<path fill-rule="evenodd" clip-rule="evenodd" d="M123.957 48.6485C163.55 21.5791 217.802 40.6943 243.125 62.9659C246.897 65.7605 251.716 71.2547 251.716 77.5216C251.715 86.701 244.273 94.1427 235.094 94.1427C233.781 94.1426 232.504 93.9889 231.279 93.7012C228.922 104.925 218.759 113.367 206.577 113.367C197.342 113.367 189.394 108.723 185.001 101.486C177.67 127.912 184.709 158.082 209.73 182.08C213.82 186.171 217.547 190.028 220.936 193.662C206.848 213.272 186.279 225.948 162.696 231.2C162.629 231.185 162.562 231.168 162.494 231.151C162.565 231.169 162.635 231.187 162.705 231.203C161.352 231.505 159.988 231.777 158.616 232.029C158.559 232.04 158.502 232.053 158.445 232.064L158.442 232.061C140.628 235.309 121.259 234.43 101.764 229.206C69.7097 220.617 43.8143 202.038 29.1251 177.441C25.7533 171.796 23.5035 166.594 22.0832 163.026C46.3814 151.41 57.6648 138.408 65.2989 127.017C82.5594 97.2079 101.663 63.8911 123.957 48.6485Z" fill="url(#paint1_linear_340_215)"/>
<path fill-rule="evenodd" clip-rule="evenodd" d="M123.957 48.6485C163.55 21.5791 217.802 40.6943 243.125 62.9659C246.897 65.7605 251.716 71.2547 251.716 77.5216C251.715 86.701 244.273 94.1427 235.094 94.1427C233.781 94.1426 232.504 93.9889 231.279 93.7012C228.922 104.925 218.759 113.367 206.577 113.367C197.342 113.367 189.394 108.723 185.001 101.486C177.67 127.912 184.709 158.082 209.73 182.08C213.82 186.171 217.547 190.028 220.936 193.662C206.848 213.272 186.279 225.948 162.696 231.2C162.629 231.185 162.562 231.168 162.494 231.151C162.565 231.169 162.635 231.187 162.705 231.203C161.352 231.505 159.988 231.777 158.616 232.029C158.559 232.04 158.502 232.053 158.445 232.064L158.442 232.061C140.628 235.309 121.259 234.43 101.764 229.206C69.7097 220.617 43.8143 202.038 29.1251 177.441C25.7533 171.796 23.5035 166.594 22.0832 163.026C46.3814 151.41 57.6648 138.408 65.2989 127.017C82.5594 97.2079 101.663 63.8911 123.957 48.6485Z" fill="url(#paint2_linear_340_215)" fill-opacity="0.2"/>
<path d="M158.445 232.063L158.443 232.061C158.522 232.046 158.602 232.033 158.682 232.018C158.603 232.032 158.524 232.049 158.445 232.063Z" fill="#CCDFEB"/>
<path d="M153.007 90.6956C156.504 96.5751 162.92 100.516 170.258 100.516C174.899 100.516 179.172 98.9383 182.571 96.2919C183.176 98.1267 183.996 99.8672 185.001 101.486C177.67 127.911 184.709 158.081 209.729 182.08C213.82 186.17 217.547 190.029 220.936 193.663C206.848 213.272 186.279 225.949 162.696 231.201C135.445 225.022 89.792 97.1917 153.007 90.6956Z" fill="#CCDFEB"/>
<defs>
<radialGradient id="paint0_radial_340_215" cx="0" cy="0" r="1" gradientTransform="matrix(1.18806e-05 -336.095 375.05 -12.6009 127.973 303.248)" gradientUnits="userSpaceOnUse">
<stop stop-color="#2EE1DE"/>
<stop offset="0.936426" stop-color="#173D7B"/>
</radialGradient>
<linearGradient id="paint1_linear_340_215" x1="203.445" y1="21.9968" x2="202.649" y2="73.7587" gradientUnits="userSpaceOnUse">
<stop stop-color="#173D7B" stop-opacity="0.2"/>
<stop offset="1" stop-color="#2EE1DE" stop-opacity="0"/>
</linearGradient>
<linearGradient id="paint2_linear_340_215" x1="109.104" y1="184.76" x2="95.3129" y2="258.892" gradientUnits="userSpaceOnUse">
<stop stop-color="#004799" stop-opacity="0"/>
<stop offset="1" stop-color="#2EE1DE"/>
</linearGradient>
</defs>
</svg>
