<svg width="256" height="256" viewBox="0 0 256 256" fill="none" xmlns="http://www.w3.org/2000/svg">
<path d="M236.424 160.45C220.375 220.347 161.659 245.255 101.763 229.206C41.8669 213.157 3.4717 162.228 19.5209 102.331C35.57 42.435 94.2859 17.5266 154.182 33.5757C214.078 49.6249 252.474 100.554 236.424 160.45Z" fill="url(#paint0_radial_321_4570)"/>
<path fill-rule="evenodd" clip-rule="evenodd" d="M123.957 48.6482C163.55 21.5787 217.802 40.694 243.125 62.9656C245.984 65.0284 251.716 71.2544 251.716 77.5212C251.715 86.7007 244.273 94.1423 235.094 94.1423C233.781 94.1423 232.504 93.9886 231.279 93.7009C228.922 104.925 218.759 113.367 206.577 113.367C197.342 113.367 189.394 108.723 185.001 101.486C177.67 127.911 184.709 158.082 209.73 182.08C213.82 186.17 217.547 190.028 220.936 193.662C206.848 213.271 186.279 225.948 162.696 231.2C162.629 231.185 162.562 231.168 162.494 231.151C162.565 231.169 162.635 231.187 162.705 231.203C161.352 231.504 159.988 231.777 158.616 232.029C158.559 232.04 158.502 232.053 158.445 232.063L158.442 232.06C140.628 235.309 121.259 234.429 101.764 229.206C69.7097 220.617 43.8143 202.037 29.1251 177.441C25.7533 171.795 23.5035 166.594 22.0832 163.026C46.3814 151.41 57.6648 138.408 65.2989 127.016C82.5594 97.2076 101.663 63.8908 123.957 48.6482Z" fill="white"/>
<path fill-rule="evenodd" clip-rule="evenodd" d="M123.957 48.6482C163.55 21.5787 217.802 40.694 243.125 62.9656C245.984 65.0284 251.716 71.2544 251.716 77.5212C251.715 86.7007 244.273 94.1423 235.094 94.1423C233.781 94.1423 232.504 93.9886 231.279 93.7009C228.922 104.925 218.759 113.367 206.577 113.367C197.342 113.367 189.394 108.723 185.001 101.486C177.67 127.911 184.709 158.082 209.73 182.08C213.82 186.17 217.547 190.028 220.936 193.662C206.848 213.271 186.279 225.948 162.696 231.2C162.629 231.185 162.562 231.168 162.494 231.151C162.565 231.169 162.635 231.187 162.705 231.203C161.352 231.504 159.988 231.777 158.616 232.029C158.559 232.04 158.502 232.053 158.445 232.063L158.442 232.06C140.628 235.309 121.259 234.429 101.764 229.206C69.7097 220.617 43.8143 202.037 29.1251 177.441C25.7533 171.795 23.5035 166.594 22.0832 163.026C46.3814 151.41 57.6648 138.408 65.2989 127.016C82.5594 97.2076 101.663 63.8908 123.957 48.6482Z" fill="url(#paint1_linear_321_4570)"/>
<path fill-rule="evenodd" clip-rule="evenodd" d="M123.957 48.6482C163.55 21.5787 217.802 40.694 243.125 62.9656C245.984 65.0284 251.716 71.2544 251.716 77.5212C251.715 86.7007 244.273 94.1423 235.094 94.1423C233.781 94.1423 232.504 93.9886 231.279 93.7009C228.922 104.925 218.759 113.367 206.577 113.367C197.342 113.367 189.394 108.723 185.001 101.486C177.67 127.911 184.709 158.082 209.73 182.08C213.82 186.17 217.547 190.028 220.936 193.662C206.848 213.271 186.279 225.948 162.696 231.2C162.629 231.185 162.562 231.168 162.494 231.151C162.565 231.169 162.635 231.187 162.705 231.203C161.352 231.504 159.988 231.777 158.616 232.029C158.559 232.04 158.502 232.053 158.445 232.063L158.442 232.06C140.628 235.309 121.259 234.429 101.764 229.206C69.7097 220.617 43.8143 202.037 29.1251 177.441C25.7533 171.795 23.5035 166.594 22.0832 163.026C46.3814 151.41 57.6648 138.408 65.2989 127.016C82.5594 97.2076 101.663 63.8908 123.957 48.6482Z" fill="url(#paint2_linear_321_4570)" fill-opacity="0.2"/>
<path d="M158.445 232.063L158.443 232.061C158.522 232.046 158.602 232.033 158.682 232.018C158.603 232.032 158.524 232.049 158.445 232.063Z" fill="#CCDFEB"/>
<path d="M153.007 90.6956C156.504 96.5751 162.92 100.516 170.258 100.516C174.899 100.516 179.172 98.9383 182.571 96.2919C183.176 98.1267 183.996 99.8672 185.001 101.486C177.67 127.911 184.709 158.081 209.729 182.08C213.82 186.17 217.547 190.029 220.936 193.663C206.848 213.272 186.279 225.949 162.696 231.201C135.445 225.022 89.792 97.1917 153.007 90.6956Z" fill="#CCDFEB"/>
<path d="M236.04 161.847L236.425 160.451L230.629 158.897C215.642 214.829 160.833 238.822 103.316 223.411C45.8003 207.999 10.3296 159.817 25.3164 103.884L19.5205 102.332L19.1543 103.733C4.07248 163.021 42.3346 213.282 101.763 229.206C161.191 245.13 219.457 220.733 236.04 161.847Z" fill="url(#paint3_linear_321_4570)" fill-opacity="0.05"/>
<path d="M165.993 230.413C165.92 230.431 165.846 230.448 165.773 230.467C166.21 230.356 166.647 230.244 167.082 230.129L165.993 230.413ZM188.269 94.4118C188.666 95.6147 189.188 96.7684 189.821 97.8581L190.099 98.322L190.13 98.3728C193.425 103.799 199.417 107.367 206.577 107.367V113.367C197.342 113.367 189.395 108.723 185.002 101.486C183.997 99.8673 183.176 98.1265 182.571 96.2917C179.172 98.9381 174.899 100.516 170.257 100.516V94.5163C173.515 94.5163 176.5 93.4135 178.884 91.5573L185.601 86.3279L188.269 94.4118ZM232.651 87.8601C233.434 88.0439 234.251 88.1422 235.093 88.1423V94.1423C233.781 94.1422 232.504 93.9886 231.279 93.7009C228.922 104.925 218.759 113.367 206.577 113.367V107.367C215.955 107.367 223.64 100.879 225.407 92.4675L226.67 86.4548L232.651 87.8601ZM245.715 77.5212C245.715 76.118 245.016 74.1973 243.551 72.072C242.122 69.9981 240.448 68.4324 239.614 67.8308L239.38 67.6618L239.162 67.4714C227.326 57.0613 208.416 47.1788 187.756 43.196C167.153 39.224 145.451 41.2213 127.343 53.6013C117.103 60.6027 107.252 72.0275 97.6637 85.7986C88.1145 99.5136 79.1538 115.062 70.4908 130.023L70.3922 130.193L70.2828 130.356C62.7127 141.652 51.7483 154.366 29.817 165.86C30.9962 168.428 32.465 171.332 34.276 174.365C48.049 197.427 72.5362 215.162 103.316 223.41C118.353 227.439 133.238 228.752 147.264 227.514C143.174 222.983 139.198 217.099 135.539 210.445C128.117 196.95 121.627 179.62 118.05 162.279C114.499 145.061 113.668 127.096 118.308 112.682C120.656 105.39 124.469 98.8165 130.218 93.8171C136.005 88.7853 143.408 85.6507 152.393 84.7273L156.205 84.3357L158.163 87.6286C160.624 91.7657 165.123 94.5159 170.257 94.5163V100.516C162.92 100.516 156.504 96.5752 153.006 90.696C89.7922 97.1925 135.445 225.022 162.696 231.201V231.2C162.699 231.201 162.702 231.202 162.705 231.203C161.352 231.504 159.988 231.777 158.616 232.029C158.598 232.032 158.58 232.036 158.562 232.04C158.522 232.047 158.483 232.054 158.443 232.061L158.442 232.06C140.628 235.309 121.258 234.429 101.763 229.206C69.7095 220.617 43.8139 202.037 29.1246 177.441C25.7529 171.795 23.5039 166.593 22.0836 163.025C46.3813 151.409 57.6644 138.407 65.2985 127.016C82.5589 97.2077 101.662 63.8909 123.957 48.6482C163.55 21.5788 217.802 40.6941 243.125 62.9655C245.983 65.0284 251.715 71.2544 251.715 77.5212C251.715 86.7006 244.273 94.1423 235.093 94.1423V88.1423C240.776 88.1423 245.417 83.6791 245.702 78.0671L245.715 77.5212Z" fill="url(#paint4_linear_321_4570)" fill-opacity="0.2"/>
<defs>
<radialGradient id="paint0_radial_321_4570" cx="0" cy="0" r="1" gradientTransform="matrix(2.60619e-07 -192.156 214.428 -7.20433 127.613 219.374)" gradientUnits="userSpaceOnUse">
<stop stop-color="#2EE1DE"/>
<stop offset="1" stop-color="#173D7B"/>
</radialGradient>
<linearGradient id="paint1_linear_321_4570" x1="203.445" y1="21.9965" x2="202.649" y2="73.7583" gradientUnits="userSpaceOnUse">
<stop stop-color="#173D7B" stop-opacity="0.2"/>
<stop offset="1" stop-color="#2EE1DE" stop-opacity="0"/>
</linearGradient>
<linearGradient id="paint2_linear_321_4570" x1="109.104" y1="184.76" x2="95.3129" y2="258.891" gradientUnits="userSpaceOnUse">
<stop stop-color="#004799" stop-opacity="0"/>
<stop offset="1" stop-color="#2EE1DE"/>
</linearGradient>
<linearGradient id="paint3_linear_321_4570" x1="124.022" y1="143.948" x2="101.172" y2="228.284" gradientUnits="userSpaceOnUse">
<stop stop-opacity="0"/>
<stop offset="1"/>
</linearGradient>
<linearGradient id="paint4_linear_321_4570" x1="112.342" y1="170.574" x2="217.254" y2="27.0607" gradientUnits="userSpaceOnUse">
<stop stop-color="#2EE1DE" stop-opacity="0"/>
<stop offset="1" stop-color="#173D7B"/>
</linearGradient>
</defs>
</svg>
