<svg width="256" height="256" viewBox="0 0 256 256" fill="none" xmlns="http://www.w3.org/2000/svg">
<rect width="256" height="256" fill="url(#paint0_radial_343_616)"/>
<path d="M90.2422 64.128C132.399 35.306 190.164 55.6595 217.126 79.3731C221.04 82.236 226.273 88.1985 226.273 94.8712C226.273 104.645 218.349 112.568 208.575 112.568C207.178 112.568 205.818 112.405 204.514 112.099C202.004 124.049 191.183 133.038 178.212 133.038C168.379 133.038 159.917 128.093 155.239 120.388C147.434 148.524 154.928 180.648 181.568 206.2C185.924 210.556 189.892 214.663 193.5 218.532C180.397 236.771 162.029 249.376 140.855 256H0.37207C0.247589 255.928 0.124247 255.853 0 255.778V175.56C13.8879 166.142 21.8677 156.403 27.7861 147.571C46.1643 115.832 66.5042 80.3576 90.2422 64.128Z" fill="white"/>
<path d="M90.2422 64.128C132.399 35.306 190.164 55.6595 217.126 79.3731C221.04 82.236 226.273 88.1985 226.273 94.8712C226.273 104.645 218.349 112.568 208.575 112.568C207.178 112.568 205.818 112.405 204.514 112.099C202.004 124.049 191.183 133.038 178.212 133.038C168.379 133.038 159.917 128.093 155.239 120.388C147.434 148.524 154.928 180.648 181.568 206.2C185.924 210.556 189.892 214.663 193.5 218.532C180.397 236.771 162.029 249.376 140.855 256H0.37207C0.247589 255.928 0.124247 255.853 0 255.778V175.56C13.8879 166.142 21.8677 156.403 27.7861 147.571C46.1643 115.832 66.5042 80.3576 90.2422 64.128Z" fill="url(#paint1_linear_343_616)"/>
<path d="M90.2422 64.128C132.399 35.306 190.164 55.6595 217.126 79.3731C221.04 82.236 226.273 88.1985 226.273 94.8712C226.273 104.645 218.349 112.568 208.575 112.568C207.178 112.568 205.818 112.405 204.514 112.099C202.004 124.049 191.183 133.038 178.212 133.038C168.379 133.038 159.917 128.093 155.239 120.388C147.434 148.524 154.928 180.648 181.568 206.2C185.924 210.556 189.892 214.663 193.5 218.532C180.397 236.771 162.029 249.376 140.855 256H0.37207C0.247589 255.928 0.124247 255.853 0 255.778V175.56C13.8879 166.142 21.8677 156.403 27.7861 147.571C46.1643 115.832 66.5042 80.3576 90.2422 64.128Z" fill="url(#paint2_linear_343_616)" fill-opacity="0.2"/>
<path d="M121.172 108.898C124.896 115.158 131.728 119.354 139.541 119.354C144.482 119.354 149.032 117.675 152.651 114.857C153.295 116.811 154.169 118.664 155.239 120.388C147.433 148.524 169.814 177.32 189.76 194.865C203.178 206.668 235.308 216.263 256 222.458V256H124.264C96.0316 209.055 69.5719 114.202 121.172 108.898Z" fill="#CCDFEB"/>
<defs>
<radialGradient id="paint0_radial_343_616" cx="0" cy="0" r="1" gradientTransform="matrix(1.35641e-05 -419.391 428.196 -15.7238 128 342.449)" gradientUnits="userSpaceOnUse">
<stop stop-color="#2EE1DE"/>
<stop offset="0.936426" stop-color="#173D7B"/>
</radialGradient>
<linearGradient id="paint1_linear_343_616" x1="174.877" y1="35.7505" x2="174.029" y2="90.8642" gradientUnits="userSpaceOnUse">
<stop stop-color="#173D7B" stop-opacity="0.2"/>
<stop offset="1" stop-color="#2EE1DE" stop-opacity="0"/>
</linearGradient>
<linearGradient id="paint2_linear_343_616" x1="74.4271" y1="209.054" x2="59.7433" y2="287.985" gradientUnits="userSpaceOnUse">
<stop stop-color="#004799" stop-opacity="0"/>
<stop offset="1" stop-color="#2EE1DE"/>
</linearGradient>
</defs>
</svg>
