<svg width="520" height="520" viewBox="0 0 520 520" fill="none" xmlns="http://www.w3.org/2000/svg">
<path d="M283.481 20C331.434 20 371.954 29.303 402.664 45.9255C429.832 60.6314 463.101 89.7157 463.101 133.278C463.101 158.567 454.416 179.505 444.494 194.36C439.535 201.785 433.791 208.427 427.621 213.944C426.545 214.907 426.455 216.572 427.438 217.629C431.994 222.536 436.186 227.603 440.013 232.834C460.807 261.257 468.319 291.086 468.32 318.143C468.32 358.22 454.631 390.738 434.314 416.267C420.692 434.901 397.55 453.707 369.799 468.196C336.094 485.795 290.87 499.651 234.9 499.991C234.195 499.996 233.492 500 232.792 500C230.853 500 228.93 499.98 227.024 499.94C226.909 499.937 226.794 499.933 226.679 499.931C225.846 499.912 225.016 499.891 224.189 499.864C224.06 499.86 223.932 499.854 223.803 499.85C222.059 499.792 220.329 499.719 218.614 499.628C218.276 499.61 217.94 499.589 217.604 499.57C216.993 499.535 216.383 499.501 215.775 499.462C215.72 499.459 215.664 499.453 215.608 499.45C214.768 499.395 213.93 499.337 213.096 499.275C212.68 499.244 212.265 499.208 211.85 499.175C211.357 499.136 210.864 499.099 210.373 499.057C210.06 499.03 209.747 498.999 209.434 498.971C208.829 498.917 208.225 498.863 207.623 498.804C207.395 498.782 207.168 498.758 206.94 498.735C206.3 498.671 205.663 498.606 205.027 498.538C204.543 498.485 204.059 498.429 203.577 498.374C203.184 498.329 202.791 498.286 202.398 498.24C201.758 498.163 201.119 498.081 200.482 498C200.263 497.972 200.044 497.946 199.825 497.917C199.21 497.837 198.598 497.752 197.987 497.667C197.726 497.631 197.465 497.598 197.205 497.561C196.759 497.497 196.315 497.429 195.871 497.363C195.431 497.298 194.99 497.235 194.551 497.167C194.171 497.109 193.793 497.046 193.414 496.986C192.961 496.914 192.508 496.843 192.057 496.768C191.619 496.696 191.182 496.619 190.746 496.544C190.335 496.474 189.923 496.405 189.514 496.333C189.1 496.259 188.689 496.182 188.278 496.106C187.856 496.029 187.435 495.954 187.015 495.874C186.647 495.805 186.281 495.732 185.915 495.66C185.442 495.568 184.97 495.477 184.5 495.382C184.137 495.309 183.774 495.233 183.412 495.158C182.974 495.068 182.536 494.978 182.099 494.885C181.662 494.791 181.226 494.695 180.79 494.599C180.421 494.518 180.053 494.438 179.686 494.355C179.197 494.245 178.71 494.131 178.224 494.018C177.919 493.946 177.614 493.877 177.31 493.805C176.838 493.692 176.368 493.577 175.898 493.462C175.56 493.379 175.221 493.297 174.884 493.213C174.553 493.13 174.222 493.044 173.892 492.96C173.404 492.835 172.917 492.711 172.431 492.583C172.181 492.517 171.931 492.448 171.682 492.382C171.163 492.243 170.645 492.104 170.13 491.961C169.823 491.877 169.517 491.791 169.212 491.705C168.764 491.579 168.317 491.453 167.872 491.325C167.445 491.202 167.02 491.075 166.596 490.95C166.277 490.855 165.959 490.763 165.642 490.667C165.236 490.545 164.832 490.42 164.429 490.295C164.051 490.179 163.674 490.064 163.298 489.946C162.967 489.841 162.637 489.734 162.307 489.628C161.896 489.497 161.486 489.366 161.077 489.232C160.743 489.122 160.41 489.01 160.078 488.899C159.66 488.76 159.243 488.621 158.828 488.479C158.51 488.37 158.193 488.259 157.877 488.149C157.483 488.012 157.089 487.876 156.697 487.737C156.305 487.598 155.915 487.456 155.525 487.315C155.193 487.195 154.862 487.075 154.532 486.954C154.145 486.811 153.759 486.666 153.375 486.521C153.049 486.399 152.723 486.277 152.399 486.153C152.046 486.018 151.696 485.881 151.345 485.745C150.97 485.599 150.595 485.454 150.221 485.306C149.905 485.18 149.59 485.053 149.275 484.926C148.892 484.772 148.511 484.617 148.131 484.461C147.784 484.318 147.439 484.174 147.095 484.03C146.773 483.896 146.45 483.761 146.129 483.625C145.736 483.458 145.345 483.289 144.955 483.12C144.659 482.992 144.363 482.865 144.069 482.736C143.699 482.574 143.332 482.409 142.965 482.245C142.649 482.104 142.334 481.963 142.02 481.821C141.648 481.652 141.278 481.481 140.908 481.31C140.624 481.179 140.341 481.049 140.059 480.916C139.686 480.742 139.315 480.564 138.945 480.388C138.638 480.241 138.331 480.095 138.026 479.947C137.709 479.794 137.394 479.639 137.08 479.484C136.736 479.315 136.392 479.147 136.05 478.976C135.706 478.804 135.364 478.629 135.022 478.456C134.749 478.317 134.477 478.179 134.206 478.04C133.826 477.845 133.448 477.647 133.071 477.45C132.78 477.297 132.49 477.146 132.201 476.992C131.881 476.822 131.562 476.651 131.244 476.479C130.948 476.32 130.652 476.16 130.358 476C130.024 475.817 129.691 475.633 129.36 475.448C129.074 475.29 128.789 475.133 128.506 474.973C128.174 474.787 127.845 474.598 127.516 474.41C127.215 474.237 126.913 474.066 126.613 473.892C126.301 473.711 125.991 473.528 125.681 473.346C125.417 473.191 125.153 473.036 124.891 472.88C124.506 472.651 124.122 472.419 123.74 472.188C123.529 472.059 123.317 471.932 123.107 471.803C122.751 471.585 122.396 471.365 122.043 471.144C121.79 470.987 121.537 470.831 121.286 470.673C120.964 470.469 120.643 470.264 120.323 470.06C120.059 469.891 119.796 469.724 119.535 469.554C119.213 469.346 118.894 469.137 118.575 468.927C118.315 468.757 118.057 468.586 117.799 468.415C117.503 468.218 117.208 468.019 116.914 467.821C116.632 467.631 116.351 467.442 116.071 467.251C115.764 467.041 115.459 466.83 115.155 466.619C114.924 466.458 114.693 466.299 114.463 466.138C114.122 465.899 113.783 465.658 113.445 465.417C113.224 465.26 113.004 465.102 112.785 464.944C112.49 464.732 112.196 464.52 111.904 464.307C111.642 464.116 111.382 463.924 111.122 463.732C110.838 463.522 110.555 463.311 110.273 463.1C110.003 462.898 109.734 462.694 109.466 462.491C109.226 462.308 108.986 462.126 108.748 461.943C108.466 461.726 108.185 461.51 107.906 461.293C107.628 461.076 107.352 460.858 107.076 460.641C106.843 460.457 106.611 460.274 106.38 460.089C106.089 459.857 105.8 459.625 105.512 459.391C105.286 459.209 105.061 459.026 104.837 458.842C104.556 458.612 104.277 458.382 103.999 458.151C103.77 457.961 103.541 457.771 103.314 457.58C103.033 457.344 102.754 457.107 102.475 456.87C102.257 456.684 102.039 456.498 101.823 456.312C101.539 456.068 101.257 455.823 100.976 455.578C100.776 455.404 100.577 455.229 100.378 455.054C100.08 454.791 99.783 454.527 99.4876 454.263C99.2923 454.088 99.0978 453.913 98.9038 453.737C98.6594 453.516 98.4157 453.295 98.1732 453.073C97.8943 452.817 97.617 452.561 97.3407 452.304C97.1601 452.136 96.9801 451.968 96.8006 451.8C96.5121 451.529 96.2246 451.258 95.9389 450.986C95.7647 450.82 95.591 450.654 95.4179 450.488C95.1329 450.214 94.8494 449.939 94.5674 449.664C94.3759 449.477 94.185 449.29 93.9948 449.103C93.7372 448.849 93.4813 448.594 93.2261 448.338C93.0319 448.144 92.8385 447.949 92.6457 447.755C92.3996 447.506 92.1544 447.257 91.9106 447.007C91.6987 446.79 91.4877 446.573 91.2775 446.355C91.0616 446.131 90.8462 445.907 90.6321 445.683C90.4138 445.454 90.1964 445.225 89.98 444.995C89.7549 444.756 89.5307 444.516 89.3076 444.276C89.0994 444.052 88.8923 443.828 88.6858 443.603C88.4691 443.367 88.2539 443.13 88.0392 442.894C87.8473 442.682 87.6559 442.471 87.4655 442.258C87.2331 441.999 87.002 441.74 86.7719 441.48C86.5774 441.26 86.3832 441.04 86.1904 440.82C85.9925 440.593 85.796 440.366 85.5998 440.14C85.3883 439.895 85.1774 439.65 84.9679 439.404C84.7533 439.153 84.5405 438.9 84.3281 438.648C84.163 438.452 83.9977 438.256 83.8339 438.06C83.621 437.804 83.4093 437.549 83.1986 437.292C82.979 437.025 82.7603 436.758 82.5431 436.49C82.3838 436.294 82.226 436.096 82.068 435.899C81.8596 435.64 81.6522 435.38 81.4461 435.12C81.235 434.853 81.0251 434.586 80.8163 434.318C80.6598 434.118 80.5032 433.918 80.348 433.717C80.1503 433.461 79.9541 433.204 79.7586 432.948C79.5903 432.727 79.4221 432.507 79.2555 432.286C79.0512 432.015 78.8489 431.743 78.647 431.471C78.4842 431.252 78.322 431.033 78.1607 430.813C77.9807 430.568 77.8021 430.323 77.624 430.077C77.4418 429.826 77.2597 429.575 77.0794 429.323C76.9151 429.094 76.7524 428.863 76.5897 428.633C76.4047 428.371 76.2202 428.11 76.0373 427.847C75.8683 427.605 75.7014 427.362 75.5342 427.119C75.3759 426.889 75.2181 426.659 75.0613 426.429C74.8641 426.139 74.6678 425.849 74.4731 425.558C74.342 425.362 74.2108 425.167 74.0809 424.971C73.9027 424.702 73.7269 424.432 73.5509 424.163C73.3792 423.901 73.2072 423.639 73.0377 423.375C72.8997 423.161 72.763 422.947 72.6264 422.732C72.465 422.479 72.3042 422.225 72.1446 421.971C71.9529 421.666 71.7632 421.361 71.5743 421.055C71.4566 420.864 71.3391 420.674 71.2224 420.483C71.0458 420.195 70.8711 419.905 70.6969 419.616C70.5497 419.372 70.402 419.128 70.2565 418.883C70.1311 418.672 70.0075 418.46 69.8834 418.249C69.727 417.983 69.5705 417.717 69.4162 417.45C69.2525 417.167 69.0912 416.884 68.9298 416.601C68.8069 416.385 68.684 416.169 68.5623 415.953C68.3752 415.621 68.1905 415.288 68.0065 414.955C67.9186 414.796 67.8304 414.637 67.7432 414.477C67.5658 414.153 67.391 413.828 67.2166 413.504C67.1171 413.318 67.0159 413.134 66.9174 412.949C66.7403 412.616 66.5658 412.282 66.3919 411.948C66.2932 411.759 66.1937 411.571 66.096 411.381C65.9321 411.064 65.7708 410.745 65.6097 410.427C65.5247 410.259 65.4397 410.091 65.3554 409.922C65.185 409.582 65.0172 409.242 64.85 408.902C64.7601 408.719 64.6701 408.536 64.5811 408.353C64.4391 408.06 64.2983 407.768 64.1587 407.475C64.0555 407.259 63.9524 407.043 63.8505 406.826C63.7012 406.509 63.5545 406.191 63.4079 405.874C63.3168 405.677 63.2256 405.48 63.1356 405.282C63.0088 405.004 62.8838 404.726 62.7591 404.448C62.6516 404.208 62.5435 403.968 62.4375 403.728C62.2755 403.361 62.1163 402.993 61.958 402.626C61.8971 402.484 61.8356 402.343 61.7753 402.202C61.6586 401.928 61.5438 401.654 61.4291 401.381C61.3271 401.137 61.2246 400.895 61.1243 400.651C61.0161 400.389 60.9101 400.126 60.8038 399.863C60.7 399.607 60.5966 399.351 60.4946 399.095C60.3949 398.844 60.2978 398.593 60.1999 398.343C60.1018 398.092 60.0027 397.842 59.9063 397.591C59.7886 397.285 59.673 396.978 59.5578 396.671C59.4831 396.472 59.4074 396.274 59.3337 396.075C59.2111 395.744 59.0914 395.412 58.9718 395.081C58.9047 394.895 58.8374 394.71 58.7712 394.524C58.6523 394.19 58.5364 393.856 58.4205 393.522C58.3587 393.344 58.2954 393.167 58.2345 392.989C58.1465 392.732 58.0607 392.475 57.9745 392.218C57.878 391.93 57.7819 391.643 57.6877 391.355C57.6188 391.145 57.5514 390.935 57.4837 390.725C57.3965 390.454 57.309 390.184 57.2238 389.913C57.1313 389.62 57.0416 389.326 56.9515 389.033C56.8805 388.801 56.8081 388.571 56.7386 388.34C56.6313 387.984 56.5275 387.627 56.4237 387.271C56.3805 387.123 56.3363 386.975 56.2937 386.827C56.2076 386.528 56.1242 386.228 56.0405 385.929C55.9812 385.717 55.9215 385.505 55.8634 385.293C55.632 384.449 55.4122 383.605 55.2001 382.762C55.1548 382.582 55.1078 382.403 55.0634 382.223C54.9958 381.949 54.9317 381.675 54.8662 381.402C54.8098 381.167 54.7519 380.932 54.697 380.697C54.4999 379.853 54.3143 379.01 54.1367 378.169C54.0999 377.994 54.0618 377.82 54.0258 377.646C53.945 377.254 53.8671 376.863 53.7905 376.473C53.7699 376.368 53.748 376.263 53.7277 376.158C53.6583 375.799 53.5919 375.439 53.526 375.081C53.4986 374.932 53.471 374.783 53.4442 374.634C53.4019 374.398 53.3618 374.163 53.321 373.928C53.1869 373.155 53.0598 372.384 52.9422 371.615C52.6618 369.78 52.4297 367.955 52.243 366.143C52.1755 365.487 52.1123 364.834 52.057 364.182C51.915 362.507 51.815 360.844 51.7534 359.195C51.7241 358.413 51.7018 357.634 51.6906 356.858L51.6805 355.415C51.6805 354.939 51.6839 354.464 51.6906 353.988C51.6966 353.565 51.7063 353.143 51.7175 352.72C51.721 352.588 51.7247 352.455 51.7287 352.323C51.7384 352.006 51.7498 351.69 51.7623 351.373C51.7674 351.246 51.7714 351.12 51.7769 350.993C51.7942 350.594 51.8143 350.195 51.8363 349.796C51.8415 349.703 51.8466 349.609 51.852 349.515C51.8692 349.217 51.8882 348.919 51.908 348.621C51.9193 348.452 51.9306 348.283 51.9427 348.113C52.0042 347.254 52.0762 346.396 52.159 345.538C52.1654 345.472 52.1726 345.405 52.1792 345.339C52.2619 344.499 52.354 343.66 52.4571 342.821C52.4758 342.668 52.4948 342.516 52.5142 342.363C52.5577 342.021 52.603 341.68 52.6498 341.339C52.6589 341.273 52.6675 341.206 52.6767 341.14C52.7324 340.74 52.7911 340.339 52.8515 339.939C52.8723 339.801 52.894 339.663 52.9154 339.525C52.9688 339.179 53.0232 338.834 53.0801 338.489C53.091 338.423 53.1027 338.357 53.1137 338.291C53.1843 337.868 53.2565 337.445 53.3322 337.022C53.3483 336.932 53.3662 336.842 53.3826 336.752C53.7922 334.499 54.273 332.255 54.8258 330.023C54.857 329.897 54.8895 329.772 54.9211 329.646C55.0042 329.316 55.0882 328.985 55.1743 328.655C55.1972 328.568 55.2196 328.481 55.2427 328.393C55.4572 327.58 55.6818 326.769 55.915 325.96C55.953 325.828 55.9897 325.696 56.0282 325.564C56.3938 324.312 56.7825 323.066 57.1924 321.824C57.227 321.719 57.2606 321.614 57.2955 321.509C57.4149 321.15 57.5366 320.793 57.6596 320.435C57.7136 320.279 57.7686 320.122 57.8232 319.966C57.9288 319.663 58.0355 319.361 58.1437 319.059C58.1813 318.954 58.2189 318.849 58.2569 318.744C58.5552 317.92 58.8625 317.098 59.1802 316.278C59.1964 316.236 59.2132 316.195 59.2295 316.153L59.4009 315.715C59.6838 314.996 59.9739 314.28 60.2716 313.565C60.3231 313.442 60.3765 313.319 60.4285 313.196C60.5619 312.878 60.6966 312.562 60.833 312.245C60.8625 312.177 60.8907 312.108 60.9204 312.039C61.0705 311.693 61.2228 311.347 61.3764 311.002L61.4795 310.77C61.5252 310.668 61.5724 310.566 61.6184 310.464C61.7437 310.186 61.8697 309.908 61.9972 309.631C62.0482 309.52 62.0982 309.409 62.1496 309.298C62.3204 308.93 62.4924 308.562 62.6673 308.195C62.722 308.08 62.778 307.966 62.8331 307.851C62.976 307.553 63.1201 307.256 63.2656 306.959C63.3381 306.811 63.4121 306.664 63.4852 306.516C63.6093 306.266 63.7336 306.015 63.8595 305.765C63.9571 305.572 64.0554 305.378 64.1542 305.185C64.2952 304.909 64.4367 304.633 64.58 304.358C64.6547 304.215 64.7299 304.071 64.8052 303.928C64.9592 303.635 65.1148 303.342 65.2713 303.05C65.3162 302.967 65.3608 302.883 65.4058 302.799C65.6082 302.424 65.8133 302.05 66.0199 301.677C66.0807 301.567 66.1424 301.457 66.2036 301.347C66.3627 301.062 66.5217 300.776 66.6832 300.491C66.749 300.375 66.8153 300.26 66.8815 300.144C67.0842 299.789 67.2881 299.435 67.4945 299.083C67.5664 298.96 67.6405 298.838 67.713 298.715C67.8586 298.468 68.0036 298.221 68.1511 297.974C68.2668 297.781 68.3838 297.589 68.5007 297.396C68.6045 297.225 68.7086 297.054 68.8133 296.883C69.0012 296.577 69.1918 296.272 69.3825 295.966C69.5023 295.775 69.6213 295.583 69.7422 295.392C69.8783 295.177 70.016 294.963 70.1535 294.749C70.2371 294.618 70.3203 294.488 70.4045 294.357C70.8829 293.618 71.3703 292.883 71.8656 292.151C71.9534 292.022 72.0407 291.892 72.1289 291.762C72.2218 291.626 72.3145 291.49 72.4079 291.354C72.5988 291.077 72.7917 290.801 72.985 290.525C73.1244 290.326 73.2646 290.128 73.4052 289.929C73.5712 289.695 73.7372 289.461 73.905 289.228C74.0133 289.077 74.1219 288.926 74.231 288.776C74.3969 288.548 74.5644 288.32 74.7319 288.093C74.8965 287.869 75.0621 287.646 75.2283 287.424C75.405 287.187 75.582 286.95 75.7605 286.714C75.8276 286.626 75.8949 286.537 75.9622 286.449C76.139 286.217 76.3171 285.985 76.4956 285.754C76.987 285.118 77.4847 284.485 77.9893 283.857C78.1118 283.704 78.2346 283.552 78.3579 283.4C78.5105 283.212 78.6636 283.024 78.8173 282.836C78.9149 282.717 79.0129 282.599 79.1109 282.48C79.4128 282.114 79.7178 281.751 80.0241 281.389C80.1271 281.267 80.2288 281.144 80.3323 281.022C80.497 280.829 80.6626 280.636 80.8287 280.443C81.3447 279.844 81.8668 279.249 82.3952 278.658C82.5366 278.5 82.6797 278.343 82.8221 278.185C83.0302 277.954 83.2385 277.724 83.4484 277.495C83.5136 277.424 83.5781 277.352 83.6434 277.281C83.931 276.968 84.2208 276.657 84.5118 276.347C84.6391 276.212 84.7671 276.077 84.895 275.942C85.0759 275.751 85.2575 275.56 85.4396 275.37C85.588 275.215 85.7364 275.061 85.8856 274.906C86.0277 274.759 86.1707 274.613 86.3136 274.467C86.5737 274.201 86.8353 273.936 87.098 273.671C87.2677 273.501 87.437 273.329 87.6078 273.159C87.7641 273.004 87.9213 272.849 88.0784 272.694C88.2336 272.542 88.3896 272.389 88.5457 272.237C88.7863 272.003 89.028 271.769 89.2707 271.536C89.4674 271.347 89.6642 271.158 89.8623 270.97C90.0179 270.822 90.1742 270.675 90.3307 270.528C90.4765 270.392 90.6223 270.255 90.7688 270.118C91.4304 269.503 92.0995 268.893 92.7757 268.29C92.8708 268.205 92.966 268.12 93.0614 268.035C93.2669 267.853 93.473 267.671 93.6799 267.49C93.8491 267.341 94.0186 267.193 94.1886 267.046C94.4468 266.822 94.7061 266.599 94.9663 266.377C95.1649 266.207 95.3637 266.038 95.5635 265.869C95.7422 265.719 95.9217 265.569 96.1014 265.419C96.2374 265.305 96.3738 265.192 96.5104 265.079C97.2048 264.505 97.9053 263.935 98.6136 263.373C98.7466 263.267 98.8801 263.162 99.0136 263.057C99.2048 262.906 99.3963 262.756 99.5884 262.606C99.8893 262.372 100.192 262.139 100.495 261.907C100.691 261.757 100.889 261.608 101.087 261.459C101.239 261.344 101.392 261.228 101.545 261.113C101.758 260.953 101.972 260.794 102.186 260.635C102.315 260.539 102.446 260.444 102.576 260.348C102.935 260.085 103.297 259.823 103.659 259.562C103.823 259.444 103.987 259.327 104.151 259.21C104.37 259.054 104.589 258.898 104.809 258.744C104.968 258.632 105.128 258.522 105.287 258.411C106.017 257.903 106.752 257.4 107.495 256.905C107.61 256.828 107.726 256.752 107.841 256.675C108.641 256.146 109.448 255.624 110.263 255.11C110.361 255.048 110.46 254.985 110.558 254.923C111.406 254.39 112.262 253.866 113.125 253.351C113.202 253.305 113.279 253.259 113.356 253.213C113.603 253.066 113.851 252.919 114.099 252.774C114.244 252.689 114.391 252.605 114.536 252.521C115.376 252.033 116.221 251.553 117.074 251.082C117.144 251.043 117.214 251.005 117.284 250.966C118.181 250.473 119.086 249.99 119.999 249.515C120.08 249.473 120.162 249.431 120.244 249.389C121.117 248.937 121.997 248.494 122.883 248.06C123.043 247.981 123.095 247.778 122.992 247.633C108.903 227.779 97.8964 202.813 97.8964 173.53C97.8965 92.4735 178.008 20.0001 283.481 20Z" fill="url(#paint0_linear_40_564)"/>
<path d="M90.6477 367.047C90.6477 336.103 121.591 295.124 175.951 295.124C230.31 295.124 244.249 319.099 246.2 331.086C243.413 329.692 236.165 326.904 229.474 326.904C221.111 326.904 204.385 333.594 204.385 353.666C204.385 370.392 224.456 397.99 257.909 397.99C299.724 397.99 325.649 368.719 325.649 345.303C325.649 321.886 286.343 289.27 240.346 270.035C194.349 250.8 142.499 209.821 142.499 162.988C142.499 116.155 194.349 55.1052 286.343 55.1052C378.336 55.1052 423.497 91.0663 423.497 117.828C423.497 144.033 405.098 162.868 398.408 164.661C391.717 166.454 390.045 159.643 388.372 157.134C386.699 154.625 359.938 101.102 305.578 101.102C251.218 101.102 250.382 134.554 250.382 140.408C250.382 146.262 254.563 173.86 332.34 209.821C410.116 245.783 429.351 289.27 429.351 325.231C429.351 424.927 312.319 464.894 229.474 464.894C123.264 464.894 90.6477 397.99 90.6477 367.047Z" fill="url(#paint1_linear_40_564)"/>
<path d="M90.6477 367.045C90.6477 336.102 121.591 295.123 175.951 295.123C230.31 295.123 244.249 319.097 246.2 331.084C243.413 329.69 236.165 326.902 229.474 326.902C221.111 326.902 204.385 333.593 204.385 353.664C204.385 380.426 244.528 428.931 311.432 428.931C378.336 428.931 406.381 393.034 405.934 393.807C394.895 412.928 335.685 464.893 229.474 464.893C123.264 464.893 90.6477 397.988 90.6477 367.045Z" fill="url(#paint2_linear_40_564)"/>
<path d="M175.95 295.623C203.06 295.623 220.024 301.601 230.439 309.015C240.303 316.038 244.321 324.37 245.529 330.214C242.25 328.729 235.644 326.402 229.474 326.402C225.184 326.402 218.8 328.111 213.481 332.366C208.141 336.638 203.885 343.47 203.885 353.664C203.885 367.251 214.04 386.196 232.497 401.717C250.98 417.259 277.854 429.431 311.432 429.431C344.978 429.431 368.802 420.43 384.191 411.511C391.883 407.053 397.466 402.617 401.1 399.341C401.538 398.945 401.947 398.565 402.329 398.206C394.669 408.143 378.265 422.97 353.162 436.077C323.772 451.422 282.495 464.392 229.474 464.392C123.521 464.392 91.1477 397.693 91.1477 367.045C91.1479 336.391 121.853 295.623 175.95 295.623Z" stroke="white" stroke-opacity="0.1"/>
<path d="M90.6477 367.047C90.6477 336.104 121.591 295.125 175.951 295.125C230.31 295.125 244.249 319.099 246.2 331.086C220.264 315.327 179.376 305.97 140.112 316.49C100.849 327.011 90.6477 367.047 90.6477 367.047Z" fill="url(#paint3_linear_40_564)" fill-opacity="0.8"/>
<path d="M175.95 295.625C203.06 295.625 220.024 301.603 230.439 309.018C240.23 315.988 244.262 324.249 245.502 330.086C219.421 314.613 178.912 305.576 139.983 316.007C120.198 321.308 107.741 334.047 100.239 345.438C96.4871 351.134 93.9703 356.5 92.3909 360.441C91.9545 361.53 91.591 362.512 91.2913 363.361C93.6157 333.229 123.995 295.625 175.95 295.625Z" stroke="white" stroke-opacity="0.1"/>
<defs>
<linearGradient id="paint0_linear_40_564" x1="260" y1="20" x2="260" y2="500" gradientUnits="userSpaceOnUse">
<stop stop-color="#004E61"/>
<stop offset="1" stop-color="#002D33"/>
</linearGradient>
<linearGradient id="paint1_linear_40_564" x1="200.18" y1="40.0235" x2="306.909" y2="435.656" gradientUnits="userSpaceOnUse">
<stop stop-color="#FFF989"/>
<stop offset="0.602775" stop-color="#22B4FA"/>
<stop offset="1" stop-color="#007B82"/>
</linearGradient>
<linearGradient id="paint2_linear_40_564" x1="308.228" y1="410.707" x2="199.082" y2="225.004" gradientUnits="userSpaceOnUse">
<stop stop-color="#22B4FA"/>
<stop offset="0.956731" stop-color="#1C9383"/>
</linearGradient>
<linearGradient id="paint3_linear_40_564" x1="101.444" y1="347.015" x2="235.931" y2="317.682" gradientUnits="userSpaceOnUse">
<stop stop-color="white" stop-opacity="0"/>
<stop offset="1" stop-color="#FFF989"/>
</linearGradient>
</defs>
</svg>
