<svg width="1720" height="900" viewBox="0 0 1720 900" fill="none" xmlns="http://www.w3.org/2000/svg">
<g clip-path="url(#clip0_192_3782)">
<mask id="mask0_192_3782" style="mask-type:luminance" maskUnits="userSpaceOnUse" x="0" y="0" width="1720" height="900">
<path d="M0 0H1720V900H0V0Z" fill="red"/>
</mask>
<g mask="url(#mask0_192_3782)">
<g opacity="0.6">
<g opacity="0.2">
<path d="M1524.6 298.8L1471.2 329.7V391.7H1471.3L1524.6 361V360.5V298.8ZM1470.8 329.9V329.4L1417.5 298.6L1417.1 298.8L1363.7 329.7V391.7H1363.8L1417.1 361V360.5L1417.5 360.8L1470.8 391.4V329.9ZM1363.4 329.4L1363.7 329.6L1417.1 298.7V298.5L1363.4 267.5V329.4ZM1310.1 360.7L1363.4 391.4V329.4L1310 298.6L1309.6 298.8V360.5L1310 360.8L1310.1 360.7ZM880.001 795.5V857.5L879.801 857.6H879.701L826.001 826.6V888.8L826.201 888.7H826.301L879.801 919.7H880.001L933.501 888.9V826.4L880.001 795.5ZM879.801 485L826.301 516L879.801 547L880.001 547.1L933.501 516.1V515.8L880.001 485H879.801ZM664.801 298.7L611.201 329.7L664.801 360.7V298.7ZM664.801 298.6L611.101 267.6V329.6H611.201L664.801 298.6ZM826.001 329.5L772.501 298.5L772.301 298.7V360.7H772.501L826.001 329.7V329.5Z" fill="green"/>
<path d="M879.8 298.5H879.7L826 267.5L772.4 298.5L826 329.5L826.2 329.6L879.8 298.6V298.5ZM503.7 205.1L504.1 205.3L557.3 174.7V174.3L503.7 143.3V205.1ZM449.9 174.4V236.4L503.6 205.4V143.4L450 174.4H449.9ZM181.2 81.2L127.5 50V112L181.2 81.2ZM127.5 50.1L73.7002 19V81.2H73.8002L127.5 112.2V50.1ZM181.2 764.5V826.5L127.5 857.5L181.2 888.6L234.9 857.6V795.5L181.3 764.5H181.2ZM880 609.2V671.2L933.5 640.2V640L880 609.2ZM826 578.2V702.2H826.2L879.8 671.2V609L826.5 578.2L826.3 578.1L826 578.2ZM987.2 547V547.4L987.7 547.1L1041 577.8V516.2L987.5 547H987.2ZM1363.4 578.3V640L1363.7 640.2L1417.1 609.3V608.9L1363.7 578.1L1363.4 578.3ZM1632 671.5V733.2L1632.4 733.4L1632 733.7V795.2L1632.4 795.4L1685.8 764.6V702L1632.5 671.1L1632 671.5ZM1363.4 764.6V826.3L1363.7 826.5L1417.1 795.6V795.3L1363.7 764.4L1363.4 764.6ZM1363.7 764.3L1417.1 795.3V733.2L1363.7 702.3V764.3ZM1310.1 733.4L1363.4 764.1V702.6L1310.1 733.4ZM1310 795.5V857.3L1363.4 826.6V826.3L1310 795.5ZM1255.9 764.6V826.6L1309.6 857.6V795.3L1256.3 764.4L1255.9 764.6ZM1255.9 392V453.7L1256.2 453.9L1309.6 422.9V422.6L1256.3 391.7L1255.9 392Z" fill="green"/>
<path d="M1256.3 391.7L1309.6 422.6V361L1256.4 391.7H1256.3ZM1525 174.4L1524.6 174.7L1471.4 205.3V205.4L1524.6 236.2L1524.9 236.4L1578.3 205.6V205L1525.1 174.4H1525ZM1632.5 236.5L1685.8 267.3V205.7L1632.5 236.5ZM1578.3 453.6V392L1525 422.8L1578.3 453.6ZM1524.6 361V422.5L1524.9 422.8L1578.3 391.9V391.4L1525.1 360.7L1524.6 361ZM1470.8 453.6V453.9L1524.5 484.9V422.9L1471.2 453.9L1470.8 453.6ZM1255.9 81.1996L1202.5 112V112.2L1255.9 143.1V81.1996ZM1202.2 174.2L1202.5 174.4H1202.6L1255.9 143.5V143.1L1202.5 112.2L1202.2 112.4L1148.8 143.4V205.2L1148.9 205.3L1202.2 174.7V174.2ZM1363.4 81.1996V80.9996L1310 50.0996V112L1363.4 81.1996Z" fill="green"/>
<path d="M1309.6 112.201V50.3008L1256.2 81.2008L1255.9 81.0008V81.2008L1309.6 112.201ZM1255.9 515.801L1202.5 484.901L1202.2 485.101V546.901L1202.5 547.101L1255.9 516.201V515.801ZM1202.5 422.801V484.801L1255.9 515.801L1256.2 515.901L1309.6 485.001L1255.9 454.001V453.701L1202.6 422.801H1202.5ZM987.2 671.401V733.301L987.5 733.401H987.7L987.2 733.701L934 764.401L933.8 764.201V764.401L987.2 795.301L987.5 795.401L1041 764.501V702.201L987.5 671.201L987.2 671.401ZM665 609.201V671.201L718.5 702.201V640.001L665 609.001V609.201Z" fill="green"/>
<path d="M664.8 671.301L611.2 702.301L664.8 733.301L665 733.401L718.5 702.401V702.201L665 671.201L664.8 671.301ZM664.8 671.201V609.201L611.2 640.201H611.1V702.201H611.2L664.8 671.201ZM396.3 577.801L396.7 578.101L449.9 547.501V547.001L396.3 516.001V577.801ZM396.1 640.201V578.201L342.6 609.201L396.1 640.201ZM342.4 547.001V609.101L396.1 578.101V516.101L342.5 547.101L342.4 547.001ZM342.4 733.401V733.701L289.2 764.301L288.8 764.101V764.401L342.4 795.401L396.1 764.401V702.401L342.5 733.401H342.4ZM181.2 577.801V516.001L127.5 547.101V547.401L128 547.101L181.2 577.801ZM181.3 577.801V578.001L234.9 609.001V547.101L181.3 516.001V577.801ZM987.2 298.501V236.601L933.7 267.601L933.5 267.401V267.601L880 298.401V298.501L933.5 329.501L933.7 329.601L987.2 298.601V298.501ZM826.6 205.301L879.8 174.701V174.301L826.3 143.301V205.301H826.5H826.6ZM826 205.001V143.501L772.5 174.501L772.3 174.301V174.701L772.8 174.401L826 205.001ZM718.5 454.001L665 485.001L718.5 516.001H718.7L772.3 485.001L718.6 454.001H718.5Z" fill="green"/>
<path d="M665 485H664.8V547L665 547.1L718.5 516.1V515.9L665 484.9V485ZM503.6 329.5V267.6L450 298.6L503.6 329.5ZM449.9 298.6L396.3 329.6L449.9 360.7V361.1L450.4 360.7L503.6 391.4V329.6L450 298.6H449.9ZM342.5 298.5L396.1 329.5V267.5L342.5 298.5ZM342.4 236.4L288.8 205.4H288.7L235.1 236.4V236.5H235V298.5L288.7 329.5V267.6L342.4 236.5V236.4Z" fill="green"/>
</g>
<g opacity="0.1">
<path d="M0 30.1L53.8 -1L107.5 30.1M0 30.1V92.1L53.8 123.3L107.5 92.1V30.1M0 30.1L53.8 61.2M107.5 30.1L53.7 61.2" stroke="red" stroke-linecap="round" stroke-linejoin="round"/>
<path d="M107.5 30.1L161.2 -1L215 30.1M107.5 30.1V92.1L161.2 123.3L215 92.1M107.5 30.1L161.2 61.2L215 30.1M215 30.1V92.1M215 30.1L268.7 -1L322.5 30.1M215 30.1L268.7 61.2L322.5 30.1M215 92.1L268.7 123.3L322.5 92.1M322.5 30.1V92.1M322.5 30.1L376.2 -1L430 30.1M322.5 30.1L376.2 61.2L430 30.1M322.5 92.1L376.2 123.3L430 92.1M430 30.1V92.1M430 30.1L483.7 -1L537.4 30.1M430 30.1L483.7 61.2L537.5 30.1L591.2 61.2L645 30.1M430 92.1L483.7 123.3L537.4 92.1M537.4 30.1V92.1M537.4 30.1L591.2 -1L645 30.1M537.4 92.1L591.2 123.3L645 92.1M645 30.1V92.1M645 30.1L698.7 -1L752.4 30.1M645 30.1L698.7 61.2L752.4 30.1M645 92.1L698.7 123.3L752.4 92.1M752.4 30.1V92.1M752.4 30.1L806.2 -1L859.9 30.1V92.1L806.2 123.3L752.4 92.1M752.4 30.1L806.2 61.2L860 30.1M860 30.1L913.8 -1L967.5 30.1M860 30.1V92.1L913.8 123.3L967.5 92.1M860 30.1L913.8 61.2L967.5 30.1M967.5 30.1V92.1M967.5 30.1L1021.2 -1L1075 30.1M967.5 30.1L1021.2 61.2L1075 30.1M967.5 92.1L1021.2 123.3L1075 92.1M1075 30.1V92.1M1075 30.1L1128.7 -1L1182.5 30.1M1075 30.1L1128.7 61.2L1182.5 30.1M1075 92.1L1128.7 123.3L1182.5 92.1M1182.5 30.1V92.1M1182.5 30.1L1236.2 -1L1290 30.1M1182.5 30.1L1236.2 61.2L1290 30.1M1182.5 92.1L1236.2 123.3L1290 92.1M1290 30.1V92.1M1290 30.1L1343.7 -1L1397.4 30.1M1290 30.1L1343.7 61.2L1397.5 30.1L1451.2 61.2L1505 30.1M1290 92.1L1343.7 123.3L1397.4 92.1M1397.4 30.1V92.1M1397.4 30.1L1451.2 -1L1505 30.1M1397.4 92.1L1451.2 123.3L1505 92.1M1505 30.1V92.1M1505 30.1L1558.7 -1L1612.4 30.1M1505 30.1L1558.7 61.2L1612.4 30.1M1505 92.1L1558.7 123.3L1612.4 92.1M1612.4 30.1V92.1M1612.4 30.1L1666.2 -1L1719.9 30.1V92.1L1666.2 123.3L1612.4 92.1M1612.4 30.1L1666.2 61.2L1720 30.1M107.5 92.2L53.7998 123.3M53.7998 123.3V185.4L107.5 216.5M53.7998 123.3L107.5 154.4" stroke="red" stroke-linecap="round" stroke-linejoin="round"/>
<path d="M107.5 92.1992L161.3 123.299M161.3 123.299V185.399M161.3 123.299L107.5 154.399M161.3 123.299L215 92.1992L268.8 123.299M161.3 123.299L215 154.399L268.8 123.299M161.3 185.399L107.5 216.499M161.3 185.399L215 216.499L268.8 185.399M0 92.1992L53.8 123.299M53.8 123.299V185.399L0 216.499M53.8 123.299L0 154.399M268.8 123.299V185.399M268.8 123.299L322.5 92.1992L376.2 123.299M268.8 123.299L322.5 154.399L376.3 123.299L430 154.399L483.8 123.299M268.8 185.399L322.5 216.499L376.2 185.399M376.2 123.299V185.399M376.2 123.299L430 92.1992L483.8 123.299M376.2 185.399L430 216.499L483.8 185.399M483.8 123.299V185.399M483.8 123.299L537.5 92.1992L591.2 123.299M483.8 123.299L537.5 154.399L591.2 123.299M483.8 185.399L537.5 216.499L591.2 185.399M591.2 123.299V185.399M591.2 123.299L645 92.1992L698.7 123.299M591.2 123.299L645 154.399L698.7 123.299M591.2 185.399L645 216.499L698.7 185.399M698.7 123.299V185.399M698.7 123.299L752.5 92.1992L806.2 123.299M698.7 123.299L752.5 154.399L806.2 123.299M698.7 185.399L752.5 216.499L806.2 185.399V123.299M806.3 123.299L860 92.1992L913.8 123.299M806.3 123.299V185.399L860 216.499L913.8 185.399M806.3 123.299L860 154.399L913.8 123.299M913.8 123.299V185.399M913.8 123.299L967.5 92.1992L1021.3 123.299M913.8 123.299L967.5 154.399L1021.3 123.299M913.8 185.399L967.5 216.499L1021.3 185.399M1021.3 123.299V185.399M1021.3 123.299L1075 92.1992L1128.8 123.299M1021.3 123.299L1075 154.399L1128.8 123.299M1021.3 185.399L1075 216.499L1128.8 185.399M1128.8 123.299V185.399M1128.8 123.299L1182.5 92.1992L1236.2 123.299M1128.8 123.299L1182.5 154.399L1236.3 123.299L1290 154.399L1343.8 123.299M1128.8 185.399L1182.5 216.499L1236.2 185.399M1236.2 123.299V185.399M1236.2 123.299L1290 92.1992L1343.8 123.299M1236.2 185.399L1290 216.499L1343.8 185.399M1343.8 123.299V185.399M1343.8 123.299L1397.5 92.1992L1451.2 123.299M1343.8 123.299L1397.5 154.399L1451.2 123.299M1343.8 185.399L1397.5 216.499L1451.2 185.399M1451.2 123.299V185.399M1451.2 123.299L1505 92.1992L1558.7 123.299M1451.2 123.299L1505 154.399L1558.7 123.299M1451.2 185.399L1505 216.499L1558.7 185.399M1558.7 123.299V185.399M1558.7 123.299L1612.5 92.1992L1666.2 123.299M1558.7 123.299L1612.5 154.399L1666.2 123.299M1558.7 185.399L1612.5 216.499L1666.2 185.399M1666.2 123.299V185.399M1666.2 123.299L1720 92.1992M1666.2 123.299L1719.9 154.399M1666.2 185.399L1719.9 216.499" stroke="red" stroke-linecap="round" stroke-linejoin="round"/>
<path d="M0 216.401L53.8 185.301L107.5 216.401M0 216.401V278.501L53.8 309.601L107.5 278.501V216.401M0 216.401L53.8 247.501M107.5 216.401L53.7 247.501" stroke="red" stroke-linecap="round" stroke-linejoin="round"/>
<path d="M107.5 216.401L161.2 185.301L215 216.401M107.5 216.401V278.501L161.2 309.601L215 278.501M107.5 216.401L161.2 247.501L215 216.401M215 216.401V278.501M215 216.401L268.7 185.301L322.5 216.401M215 216.401L268.7 247.501L322.5 216.401M215 278.501L268.7 309.601L322.5 278.501M322.5 216.401V278.501M322.5 216.401L376.2 185.301L430 216.401M322.5 216.401L376.2 247.501L430 216.401M322.5 278.501L376.2 309.601L430 278.501M430 216.401V278.501M430 216.401L483.7 185.301L537.4 216.401M430 216.401L483.7 247.501L537.5 216.401L591.2 247.501L645 216.401M430 278.501L483.7 309.601L537.4 278.501M537.4 216.401V278.501M537.4 216.401L591.2 185.301L645 216.401M537.4 278.501L591.2 309.601L645 278.501M645 216.401V278.501M645 216.401L698.7 185.301L752.4 216.401M645 216.401L698.7 247.501L752.4 216.401M645 278.501L698.7 309.601L752.4 278.501M752.4 216.401V278.501M752.4 216.401L806.2 185.301L859.9 216.401V278.501L806.2 309.601L752.4 278.501M752.4 216.401L806.2 247.501L860 216.401M860 216.401L913.8 185.301L967.5 216.401M860 216.401V278.501L913.8 309.601L967.5 278.501M860 216.401L913.8 247.501L967.5 216.401M967.5 216.401V278.501M967.5 216.401L1021.2 185.301L1075 216.401M967.5 216.401L1021.2 247.501L1075 216.401M967.5 278.501L1021.2 309.601L1075 278.501M1075 216.401V278.501M1075 216.401L1128.7 185.301L1182.5 216.401M1075 216.401L1128.7 247.501L1182.5 216.401M1075 278.501L1128.7 309.601L1182.5 278.501M1182.5 216.401V278.501M1182.5 216.401L1236.2 185.301L1290 216.401M1182.5 216.401L1236.2 247.501L1290 216.401M1182.5 278.501L1236.2 309.601L1290 278.501M1290 216.401V278.501M1290 216.401L1343.7 185.301L1397.4 216.401M1290 216.401L1343.7 247.501L1397.5 216.401L1451.2 247.501L1505 216.401M1290 278.501L1343.7 309.601L1397.4 278.501M1397.4 216.401V278.501M1397.4 216.401L1451.2 185.301L1505 216.401M1397.4 278.501L1451.2 309.601L1505 278.501M1505 216.401V278.501M1505 216.401L1558.7 185.301L1612.4 216.401M1505 216.401L1558.7 247.501L1612.4 216.401M1505 278.501L1558.7 309.601L1612.4 278.501M1612.4 216.401V278.501M1612.4 216.401L1666.2 185.301L1719.9 216.401V278.501L1666.2 309.601L1612.4 278.501M1612.4 216.401L1666.2 247.501L1720 216.401M107.5 278.601L53.7998 309.601V371.701L107.5 402.801M53.7998 309.701L107.5 340.701" stroke="red" stroke-linecap="round" stroke-linejoin="round"/>
<path d="M107.5 278.6L161.3 309.6M161.3 309.6V371.7M161.3 309.6L215 278.6L268.8 309.6M161.3 371.7L107.5 402.8M161.3 371.7L215 402.8M107.5 340.7L161.3 309.7L215 340.7L268.8 309.7L322.5 340.7L376.3 309.7L430 340.7L483.8 309.7L537.5 340.7L591.2 309.7L645 340.7L698.7 309.7L752.5 340.7L806.2 309.7M0 278.6L53.8 309.6V371.7L0 402.9M53.8 309.7L0 340.7M268.8 309.6V371.7M268.8 309.6L322.5 278.6L376.2 309.6M268.8 371.7L215 402.9M268.8 371.7L322.5 402.8L376.2 371.7M376.2 309.6V371.7M376.2 309.6L430 278.6L483.8 309.6M376.2 371.7L430 402.8M483.8 309.6V371.7M483.8 309.6L537.5 278.6L591.2 309.6M483.8 371.7L430 402.9M483.8 371.7L537.5 402.8L591.2 371.7M591.2 309.6V371.7M591.2 309.6L645 278.6L698.7 309.6M591.2 371.7L645 402.8M698.7 309.6V371.7M698.7 309.6L752.5 278.6L806.2 309.6V371.7L752.5 402.8L698.7 371.7M698.7 371.7L645 402.9M860 402.8L806.3 371.7V309.6L860 278.6L913.8 309.6M806.3 309.7L860 340.7L913.8 309.7L967.5 340.7L1021.3 309.7L1075 340.7L1128.8 309.7L1182.5 340.7L1236.3 309.7L1290 340.7L1343.8 309.7L1397.5 340.7L1451.2 309.7L1505 340.7L1558.7 309.7L1612.5 340.7L1666.2 309.7L1719.9 340.7M913.8 309.6V371.7M913.8 309.6L967.5 278.6L1021.3 309.6M913.8 371.7L860 402.9M913.8 371.7L967.5 402.8L1021.3 371.7M1021.3 309.6V371.7M1021.3 309.6L1075 278.6L1128.8 309.6M1021.3 371.7L1075 402.8L1128.8 371.7M1128.8 309.6V371.7M1128.8 309.6L1182.5 278.6L1236.2 309.6M1128.8 371.7L1182.5 402.8L1236.2 371.7M1236.2 309.6V371.7M1236.2 309.6L1290 278.6L1343.8 309.6M1236.2 371.7L1290 402.8L1343.8 371.7M1343.8 309.6V371.7M1343.8 309.6L1397.5 278.6L1451.2 309.6M1343.8 371.7L1397.5 402.8L1451.2 371.7M1451.2 309.6V371.7M1451.2 309.6L1505 278.6L1558.7 309.6M1451.2 371.7L1505 402.8L1558.7 371.7M1558.7 309.6V371.7M1558.7 309.6L1612.5 278.6L1666.2 309.6M1558.7 371.7L1612.5 402.8L1666.2 371.7M1666.2 309.6V371.7M1666.2 309.6L1720 278.6M1666.2 371.7L1719.9 402.8" stroke="red" stroke-linecap="round" stroke-linejoin="round"/>
<path d="M0 402.799L53.8 433.799M107.5 402.799L53.7 433.799M53.8 371.699L0 402.699V464.999L53.8 495.999L107.5 464.999V402.699L53.8 371.699Z" stroke="red" stroke-linecap="round" stroke-linejoin="round"/>
<path d="M107.5 402.799L161.2 433.799L215 402.799L268.7 433.799L322.5 402.799L376.2 433.799L430 402.799L483.7 433.799L537.5 402.799L591.2 433.799L645 402.799L698.7 433.799L752.4 402.799L806.2 433.799L860 402.799L913.8 433.799L967.5 402.799L1021.2 433.799L1075 402.799L1128.7 433.799L1182.5 402.799L1236.2 433.799L1290 402.799L1343.7 433.799L1397.5 402.799L1451.2 433.799L1505 402.799L1558.7 433.799L1612.4 402.799L1666.2 433.799L1720 402.799M215 402.699L161.2 371.699L107.5 402.699V464.999L161.2 495.999L215 464.999M215 402.699V464.999M215 402.699L268.7 371.699L322.5 402.699M215 464.999L268.7 495.999L322.5 464.999M322.5 402.699V464.999M322.5 402.699L376.2 371.699L430 402.699M322.5 464.999L376.2 495.999L430 464.999M430 402.699V464.999M430 402.699L483.7 371.699L537.4 402.699M430 464.999L483.7 495.999L537.4 464.999M537.4 402.699V464.999M537.4 402.699L591.2 371.699L645 402.699M537.4 464.999L591.2 495.999L645 464.999M645 402.699V464.999M645 402.699L698.7 371.699L752.4 402.699M645 464.999L698.7 495.999L752.4 464.999M752.4 402.699V464.999M752.4 402.699L806.2 371.699L859.9 402.699V464.999L806.2 495.999L752.4 464.999M967.5 402.699L913.8 371.699L860 402.699V464.999L913.8 495.999L967.5 464.999M967.5 402.699V464.999M967.5 402.699L1021.2 371.699L1075 402.699M967.5 464.999L1021.2 495.999L1075 464.999M1075 402.699V464.999M1075 402.699L1128.7 371.699L1182.5 402.699M1075 464.999L1128.7 495.999L1182.5 464.999M1182.5 402.699V464.999M1182.5 402.699L1236.2 371.699L1290 402.699M1182.5 464.999L1236.2 495.999L1290 464.999M1290 402.699V464.999M1290 402.699L1343.7 371.699L1397.4 402.699M1290 464.999L1343.7 495.999L1397.4 464.999M1397.4 402.699V464.999M1397.4 402.699L1451.2 371.699L1505 402.699M1397.4 464.999L1451.2 495.999L1505 464.999M1505 402.699V464.999M1505 402.699L1558.7 371.699L1612.4 402.699M1505 464.999L1558.7 495.999L1612.4 464.999M1612.4 402.699V464.999M1612.4 402.699L1666.2 371.699L1719.9 402.699V464.999L1666.2 495.999L1612.4 464.999" stroke="red" stroke-linecap="round" stroke-linejoin="round"/>
<path d="M53.8 496L107.5 465L161.3 496M53.8 496V558M53.8 496L107.5 527.1L161.3 496M53.8 496L0 465M53.8 496L0 527.1M53.8 558L107.5 589.2L161.3 558M53.8 558L0 589.3M161.3 496V558M161.3 496L215 465L268.8 496M161.3 496L215 527.1L268.8 496M161.3 558L215 589.2M268.8 496V558M268.8 496L322.5 465L376.2 496M268.8 496L322.5 527.1L376.3 496L430 527.1L483.8 496M268.8 558L215 589.3M268.8 558L322.5 589.2L376.2 558M376.2 496V558M376.2 496L430 465L483.8 496M376.2 558L430 589.2M483.8 496V558M483.8 496L537.5 465L591.2 496M483.8 496L537.5 527.1L591.2 496M483.8 558L430 589.3M483.8 558L537.5 589.2L591.2 558M591.2 496V558M591.2 496L645 465L698.7 496M591.2 496L645 527.1L698.7 496M591.2 558L645 589.2M698.7 496V558M698.7 496L752.5 465L806.2 496M698.7 496L752.5 527.1L806.2 496M698.7 558L645 589.3M698.7 558L752.5 589.2L806.2 558V496M806.3 496L860 465L913.8 496M806.3 496V558L860 589.2M806.3 496L860 527.1L913.8 496M913.8 496V558M913.8 496L967.5 465L1021.3 496M913.8 496L967.5 527.1L1021.3 496M913.8 558L860 589.3M913.8 558L967.5 589.2L1021.3 558M1021.3 496V558M1021.3 496L1075 465L1128.8 496M1021.3 496L1075 527.1L1128.8 496M1021.3 558L1075 589.2L1128.8 558M1128.8 496V558M1128.8 496L1182.5 465L1236.2 496M1128.8 496L1182.5 527.1L1236.3 496L1290 527.1L1343.8 496M1128.8 558L1182.5 589.2L1236.2 558M1236.2 496V558M1236.2 496L1290 465L1343.8 496M1236.2 558L1290 589.2L1343.8 558M1343.8 496V558M1343.8 496L1397.5 465L1451.2 496M1343.8 496L1397.5 527.1L1451.2 496M1343.8 558L1397.5 589.2L1451.2 558M1451.2 496V558M1451.2 496L1505 465L1558.7 496M1451.2 496L1505 527.1L1558.7 496M1451.2 558L1505 589.2L1558.7 558M1558.7 496V558M1558.7 496L1612.5 465L1666.2 496M1558.7 496L1612.5 527.1L1666.2 496M1558.7 558L1612.5 589.2L1666.2 558M1666.2 496V558M1666.2 496L1720 465M1666.2 496L1719.9 527.1M1666.2 558L1719.9 589.2" stroke="red" stroke-linecap="round" stroke-linejoin="round"/>
<path d="M0 589.1L53.8 558L107.5 589.1M0 589.1V651.1L53.8 682.3L107.5 651.1V589.1M0 589.1L53.8 620.2M107.5 589.1L53.7 620.2" stroke="red" stroke-linecap="round" stroke-linejoin="round"/>
<path d="M107.5 589.1L161.2 558L215 589.1M107.5 589.1V651.1L161.2 682.3L215 651.1M107.5 589.1L161.2 620.2L215 589.1M215 589.1V651.1M215 589.1L268.7 558L322.5 589.1M215 589.1L268.7 620.2L322.5 589.1M215 651.1L268.7 682.3L322.5 651.1M322.5 589.1V651.1M322.5 589.1L376.2 558L430 589.1M322.5 589.1L376.2 620.2L430 589.1M322.5 651.1L376.2 682.3L430 651.1M430 589.1V651.1M430 589.1L483.7 558L537.4 589.1M430 589.1L483.7 620.2L537.5 589.1L591.2 620.2L645 589.1M430 651.1L483.7 682.3L537.4 651.1M537.4 589.1V651.1M537.4 589.1L591.2 558L645 589.1M537.4 651.1L591.2 682.3L645 651.1M645 589.1V651.1M645 589.1L698.7 558L752.4 589.1M645 589.1L698.7 620.2L752.4 589.1M645 651.1L698.7 682.3L752.4 651.1M752.4 589.1V651.1M752.4 589.1L806.2 558L859.9 589.1V651.1L806.2 682.3L752.4 651.1M752.4 589.1L806.2 620.2L860 589.1M860 589.1L913.8 558L967.5 589.1M860 589.1V651.1L913.8 682.3L967.5 651.1M860 589.1L913.8 620.2L967.5 589.1M967.5 589.1V651.1M967.5 589.1L1021.2 558L1075 589.1M967.5 589.1L1021.2 620.2L1075 589.1M967.5 651.1L1021.2 682.3L1075 651.1M1075 589.1V651.1M1075 589.1L1128.7 558L1182.5 589.1M1075 589.1L1128.7 620.2L1182.5 589.1M1075 651.1L1128.7 682.3L1182.5 651.1M1182.5 589.1V651.1M1182.5 589.1L1236.2 558L1290 589.1M1182.5 589.1L1236.2 620.2L1290 589.1M1182.5 651.1L1236.2 682.3L1290 651.1M1290 589.1V651.1M1290 589.1L1343.7 558L1397.4 589.1M1290 589.1L1343.7 620.2L1397.5 589.1L1451.2 620.2L1505 589.1M1290 651.1L1343.7 682.3L1397.4 651.1M1397.4 589.1V651.1M1397.4 589.1L1451.2 558L1505 589.1M1397.4 651.1L1451.2 682.3L1505 651.1M1505 589.1V651.1M1505 589.1L1558.7 558L1612.4 589.1M1505 589.1L1558.7 620.2L1612.4 589.1M1505 651.1L1558.7 682.3L1612.4 651.1M1612.4 589.1V651.1M1612.4 589.1L1666.2 558L1719.9 589.1V651.1L1666.2 682.3L1612.4 651.1M1612.4 589.1L1666.2 620.2L1720 589.1M107.5 651.2L53.7998 682.3M53.7998 682.3V744.4L107.5 775.5M53.7998 682.3L107.5 713.4" stroke="red" stroke-linecap="round" stroke-linejoin="round"/>
<path d="M107.5 651.199L161.3 682.299M161.3 682.299V744.399M161.3 682.299L107.5 713.399M161.3 682.299L215 651.199L268.8 682.299M161.3 682.299L215 713.399L268.8 682.299M161.3 744.399L107.5 775.499M161.3 744.399L215 775.499L268.8 744.399M0 651.199L53.8 682.299M53.8 682.299V744.399L0 775.499M53.8 682.299L0 713.399M268.8 682.299V744.399M268.8 682.299L322.5 651.199L376.2 682.299M268.8 682.299L322.5 713.399L376.3 682.299L430 713.399L483.8 682.299M268.8 744.399L322.5 775.499L376.2 744.399M376.2 682.299V744.399M376.2 682.299L430 651.199L483.8 682.299M376.2 744.399L430 775.499L483.8 744.399M483.8 682.299V744.399M483.8 682.299L537.5 651.199L591.2 682.299M483.8 682.299L537.5 713.399L591.2 682.299M483.8 744.399L537.5 775.499L591.2 744.399M591.2 682.299V744.399M591.2 682.299L645 651.199L698.7 682.299M591.2 682.299L645 713.399L698.7 682.299M591.2 744.399L645 775.499L698.7 744.399M698.7 682.299V744.399M698.7 682.299L752.5 651.199L806.2 682.299M698.7 682.299L752.5 713.399L806.2 682.299M698.7 744.399L752.5 775.499L806.2 744.399V682.299M806.3 682.299L860 651.199L913.8 682.299M806.3 682.299V744.399L860 775.499L913.8 744.399M806.3 682.299L860 713.399L913.8 682.299M913.8 682.299V744.399M913.8 682.299L967.5 651.199L1021.3 682.299M913.8 682.299L967.5 713.399L1021.3 682.299M913.8 744.399L967.5 775.499L1021.3 744.399M1021.3 682.299V744.399M1021.3 682.299L1075 651.199L1128.8 682.299M1021.3 682.299L1075 713.399L1128.8 682.299M1021.3 744.399L1075 775.499L1128.8 744.399M1128.8 682.299V744.399M1128.8 682.299L1182.5 651.199L1236.2 682.299M1128.8 682.299L1182.5 713.399L1236.3 682.299L1290 713.399L1343.8 682.299M1128.8 744.399L1182.5 775.499L1236.2 744.399M1236.2 682.299V744.399M1236.2 682.299L1290 651.199L1343.8 682.299M1236.2 744.399L1290 775.499L1343.8 744.399M1343.8 682.299V744.399M1343.8 682.299L1397.5 651.199L1451.2 682.299M1343.8 682.299L1397.5 713.399L1451.2 682.299M1343.8 744.399L1397.5 775.499L1451.2 744.399M1451.2 682.299V744.399M1451.2 682.299L1505 651.199L1558.7 682.299M1451.2 682.299L1505 713.399L1558.7 682.299M1451.2 744.399L1505 775.499L1558.7 744.399M1558.7 682.299V744.399M1558.7 682.299L1612.5 651.199L1666.2 682.299M1558.7 682.299L1612.5 713.399L1666.2 682.299M1558.7 744.399L1612.5 775.499L1666.2 744.399M1666.2 682.299V744.399M1666.2 682.299L1720 651.199M1666.2 682.299L1719.9 713.399M1666.2 744.399L1719.9 775.499" stroke="red" stroke-linecap="round" stroke-linejoin="round"/>
<path d="M0 775.401L53.8 744.301L107.5 775.401M0 775.401V837.501L53.8 868.601L107.5 837.501V775.401M0 775.401L53.8 806.501M107.5 775.401L53.7 806.501" stroke="red" stroke-linecap="round" stroke-linejoin="round"/>
<path d="M107.5 775.4L161.2 744.3L215 775.4M107.5 775.4V837.5L161.2 868.6L215 837.5M107.5 775.4L161.2 806.5L215 775.4M215 775.4V837.5M215 775.4L268.7 744.3L322.5 775.4M215 775.4L268.7 806.5L322.5 775.4M215 837.5L268.7 868.6L322.5 837.5M322.5 775.4V837.5M322.5 775.4L376.2 744.3L430 775.4M322.5 775.4L376.2 806.5L430 775.4M322.5 837.5L376.2 868.6L430 837.5M430 775.4V837.5M430 775.4L483.7 744.3L537.4 775.4M430 775.4L483.7 806.5L537.5 775.4L591.2 806.5L645 775.4M430 837.5L483.7 868.6L537.4 837.5M537.4 775.4V837.5M537.4 775.4L591.2 744.3L645 775.4M537.4 837.5L591.2 868.6L645 837.5M645 775.4V837.5M645 775.4L698.7 744.3L752.4 775.4M645 775.4L698.7 806.5L752.4 775.4M645 837.5L698.7 868.6L752.4 837.5M752.4 775.4V837.5M752.4 775.4L806.2 744.3L859.9 775.4V837.5L806.2 868.6L752.4 837.5M752.4 775.4L806.2 806.5L860 775.4M860 775.4L913.8 744.3L967.5 775.4M860 775.4V837.5L913.8 868.6L967.5 837.5M860 775.4L913.8 806.5L967.5 775.4M967.5 775.4V837.5M967.5 775.4L1021.2 744.3L1075 775.4M967.5 775.4L1021.2 806.5L1075 775.4M967.5 837.5L1021.2 868.6L1075 837.5M1075 775.4V837.5M1075 775.4L1128.7 744.3L1182.5 775.4M1075 775.4L1128.7 806.5L1182.5 775.4M1075 837.5L1128.7 868.6L1182.5 837.5M1182.5 775.4V837.5M1182.5 775.4L1236.2 744.3L1290 775.4M1182.5 775.4L1236.2 806.5L1290 775.4M1182.5 837.5L1236.2 868.6L1290 837.5M1290 775.4V837.5M1290 775.4L1343.7 744.3L1397.4 775.4M1290 775.4L1343.7 806.5L1397.5 775.4L1451.2 806.5L1505 775.4M1290 837.5L1343.7 868.6L1397.4 837.5M1397.4 775.4V837.5M1397.4 775.4L1451.2 744.3L1505 775.4M1397.4 837.5L1451.2 868.6L1505 837.5M1505 775.4V837.5M1505 775.4L1558.7 744.3L1612.4 775.4M1505 775.4L1558.7 806.5L1612.4 775.4M1505 837.5L1558.7 868.6L1612.4 837.5M1612.4 775.4V837.5M1612.4 775.4L1666.2 744.3L1719.9 775.4V837.5L1666.2 868.6L1612.4 837.5M1612.4 775.4L1666.2 806.5L1720 775.4M0 899.7L53.8 868.7L107.5 899.7L161.3 868.7L215 899.7L268.8 868.7L322.5 899.7L376.3 868.7L430 899.7L483.8 868.7L537.5 899.7L591.2 868.7L645 899.7L698.7 868.7L752.5 899.7L806.2 868.7M806.3 868.7L860 899.7L913.8 868.7L967.5 899.7L1021.3 868.7L1075 899.7L1128.8 868.7L1182.5 899.7L1236.3 868.7L1290 899.7L1343.8 868.7L1397.5 899.7L1451.2 868.7L1505 899.7L1558.7 868.7L1612.5 899.7L1666.2 868.7L1719.9 899.7M0 -21V919.8M53.7 -21V919.8M107.5 -21V919.8M161.2 -21V919.8M215 -21V919.8M268.7 -21V919.8M322.4 -21V919.8M376.1 -21V919.8M429.9 -21V919.8M483.6 -21V919.8M537.3 -21V919.8M591 -21V919.8M644.8 -21V919.8M698.5 -21V919.8M752.3 -21V919.8M806 -21V919.8M859.8 -21V919.8M913.5 -21V919.8M967.2 -21V919.8M1021 -21V919.8M1074.7 -21V919.8M1128.4 -21V919.8M1182.2 -21V919.8M1235.9 -21V919.8M1289.6 -21V919.8M1343.4 -21V919.8M1397 -21V919.8M1450.8 -21V919.8M1504.6 -21V919.8M1558.3 -21V919.8M1612 -21V919.8M1665.8 -21V919.8M1719.5 -21V919.8M429.9 92.2L376.2 61.2L322.5 92.2L268.8 61.2L215.1 92.2M161.2 61.2L214.9 92.2M53.8 61.2L107.6 92.2M698.5 61.2L752.3 92.2L806 61.2L859.7 92.2M591 61.2L644.8 92.2M483.6 61.2L537.3 92.2M1128.4 61.2L1182.2 92.2L1236 61.2M1235.8 61.2L1289.6 92.2M1020.9 61.2L1074.6 92.2M913.5 61.2L967.2 92.2M1558.3 61.2L1612.1 92.2M1665.7 61.2L1719.5 92.2M1504.5 92.2L1450.8 61.2L1397.1 92.2L1343.4 61.2L1289.7 92.2M1558.4 61.2L1504.6 92.2M1665.8 61.2L1612 92.2M1021 61.2L967.3 92.2M913.6 61.2L859.9 92.2M1128.6 61.2L1074.8 92.2M591.1 61.2L537.4 92.2M483.7 61.2L430 92.2M698.7 61.2L645 92.2M161.3 61.2L107.5 92.2M53.9 61.2L0 92.2" stroke="red" stroke-linecap="round" stroke-linejoin="round"/>
<path d="M215.5 154.4L269.3 185.4M323 154.4L376.7 185.4M108 154.4L161.7 185.4M0.599609 154.4L54.2996 185.4M645.3 154.4L699.1 185.4M752.7 154.4L806.5 185.4M537.8 154.4L591.5 185.4M430.4 154.4L484.1 185.4M1075.2 154.4L1128.9 185.4M1182.6 154.4L1236.3 185.4M967.6 154.4L1021.4 185.4M860.2 154.4L914 185.4M1505 154.4L1558.8 185.4M1612.5 154.4L1666.2 185.4M1397.5 154.4L1451.3 185.4M1290.1 154.4L1343.9 185.4" stroke="red" stroke-linecap="round" stroke-linejoin="round"/>
<path d="M1397.6 154.4L1343.8 185.4M1290.2 154.4L1236.4 185.4M1505.1 154.4L1451.4 185.4M1612.5 154.4L1558.8 185.4M1719.5 154.4L1665.7 185.4M967.8 154.4L914 185.4M860.4 154.4L806.6 185.4M1075.3 154.4L1021.6 185.4M1182.7 154.4L1129 185.4M537.9 154.4L484.2 185.4M430.5 154.4L376.8 185.4M645.5 154.4L591.7 185.4M752.9 154.4L699.1 185.4M108 154.4L54.2998 185.4M215.6 154.4L161.8 185.4M323 154.4L269.2 185.4" stroke="red" stroke-linecap="round" stroke-linejoin="round"/>
<path d="M268.8 247.5L322.5 278.5M376.2 247.5L429.9 278.5M161.2 247.5L214.9 278.5M53.7998 247.5L107.6 278.5M698.5 247.5L752.3 278.5M806 247.5L859.7 278.5M591 247.5L644.8 278.5M483.6 247.5L537.3 278.5M1128.4 247.5L1182.2 278.5M1235.8 247.5L1289.6 278.5M1020.9 247.5L1074.6 278.5M913.5 247.5L967.2 278.5M1558.3 247.5L1612.1 278.5M1665.7 247.5L1719.5 278.5M1450.8 247.5L1504.5 278.5M1343.4 247.5L1397.1 278.5" stroke="red" stroke-linecap="round" stroke-linejoin="round"/>
<path d="M1450.8 247.5L1397.1 278.5M1343.4 247.5L1289.7 278.5M1558.4 247.5L1504.6 278.5M1665.8 247.5L1612 278.5M1021 247.5L967.3 278.5M913.6 247.5L859.9 278.5M1128.6 247.5L1074.8 278.5M1236 247.5L1182.2 278.5M591.1 247.5L537.4 278.5M483.7 247.5L430 278.5M698.7 247.5L645 278.5M806 247.5L752.3 278.5M161.3 247.5L107.5 278.5M53.9 247.5L0 278.5M268.8 247.5L215.1 278.5M376.2 247.5L322.5 278.5" stroke="red" stroke-linecap="round" stroke-linejoin="round"/>
<path d="M215.5 340.699L269.3 371.699M323 340.699L376.7 371.699M108 340.699L161.7 371.699M0.599609 340.699L54.2996 371.699M645.3 340.699L699.1 371.699M752.7 340.699L806.5 371.699M537.8 340.699L591.5 371.699M430.4 340.699L484.1 371.699M1075.2 340.699L1128.9 371.699M1182.6 340.699L1236.3 371.699M967.6 340.699L1021.4 371.699M860.2 340.699L914 371.699M1505 340.699L1558.8 371.699M1612.5 340.699L1666.2 371.699M1397.5 340.699L1451.3 371.699M1290.1 340.699L1343.9 371.699" stroke="red" stroke-linecap="round" stroke-linejoin="round"/>
<path d="M1397.6 340.699L1343.8 371.699M1290.2 340.699L1236.4 371.699M1505.1 340.699L1451.4 371.699M1612.5 340.699L1558.8 371.699M1719.5 340.699L1665.7 371.699M967.8 340.699L914 371.699M860.4 340.699L806.6 371.699M1075.3 340.699L1021.6 371.699M1182.7 340.699L1129 371.699M537.9 340.699L484.2 371.699M430.5 340.699L376.8 371.699M645.5 340.699L591.7 371.699M752.9 340.699L699.1 371.699M108 340.699L54.2998 371.699M215.6 340.699L161.8 371.699M323 340.699L269.2 371.699" stroke="red" stroke-linecap="round" stroke-linejoin="round"/>
<path d="M268.8 434L322.5 465M376.2 434L429.9 465M161.2 434L214.9 465M53.7998 434L107.6 465M698.5 434L752.3 465M806 434L859.7 465M591 434L644.8 465M483.6 434L537.3 465M1128.4 434L1182.2 465M1235.8 434L1289.6 465M1020.9 434L1074.6 465M913.5 434L967.2 465M1558.3 434L1612.1 465M1665.7 434L1719.5 465M1450.8 434L1504.5 465M1343.4 434L1397.1 465" stroke="red" stroke-linecap="round" stroke-linejoin="round"/>
<path d="M1450.8 434L1397.1 465M1343.4 434L1289.7 465M1558.4 434L1504.6 465M1665.8 434L1612 465M1021 434L967.3 465M913.6 434L860 465M1128.6 434L1074.8 465M1236 434L1182.2 465M591.1 434L537.4 465M483.7 434L430 465M698.7 434L645 465M806 434L752.3 465M161.3 434L107.5 465M53.9 434L0 465M268.8 434L215.1 465M376.2 434L322.5 465" stroke="red" stroke-linecap="round" stroke-linejoin="round"/>
<path d="M215.5 527L269.3 558M323 527L376.7 558M108 527L161.7 558M0.599609 527L54.2996 558M645.3 527L699.1 558M752.7 527L806.5 558M537.8 527L591.5 558M430.4 527L484.1 558M1075.2 527L1128.9 558M1182.6 527L1236.3 558M967.6 527L1021.4 558M860.2 527L914 558M1505 527L1558.8 558M1612.5 527L1666.2 558M1397.5 527L1451.3 558M1290.1 527L1343.9 558" stroke="red" stroke-linecap="round" stroke-linejoin="round"/>
<path d="M1397.6 527L1343.8 558M1290.2 527L1236.4 558M1505.1 527L1451.4 558M1612.5 527L1558.8 558M1719.5 527L1665.7 558M967.8 527L914 558M860.4 527L806.6 558M1075.3 527L1021.6 558M1182.7 527L1129 558M537.9 527L484.2 558M430.5 527L376.8 558M645.5 527L591.7 558M752.9 527L699 558M108 527L54.2998 558M215.6 527L161.8 558M323 527L269.2 558" stroke="red" stroke-linecap="round" stroke-linejoin="round"/>
<path d="M268.8 620.199L322.5 651.199M376.2 620.199L429.9 651.199M161.2 620.199L214.9 651.199M53.7998 620.199L107.6 651.199M698.5 620.199L752.3 651.199M806 620.199L859.7 651.199M591 620.199L644.8 651.199M483.6 620.199L537.3 651.199M1128.4 620.199L1182.2 651.199M1235.8 620.199L1289.6 651.199M1020.9 620.199L1074.6 651.199M913.5 620.199L967.2 651.199M1558.3 620.199L1612.1 651.199M1665.7 620.199L1719.5 651.199M1450.8 620.199L1504.5 651.199M1343.4 620.199L1397.1 651.199" stroke="red" stroke-linecap="round" stroke-linejoin="round"/>
<path d="M1450.8 620.199L1397.1 651.199M1343.4 620.199L1289.7 651.199M1558.4 620.199L1504.6 651.199M1665.8 620.199L1612 651.199M1021 620.199L967.3 651.199M913.6 620.199L859.9 651.199M1128.6 620.199L1074.8 651.199M1236 620.199L1182.2 651.199M591.1 620.199L537.4 651.199M483.7 620.199L430 651.199M698.7 620.199L645 651.199M806 620.199L752.3 651.199M161.3 620.199L107.5 651.199M53.9 620.199L0 651.199M268.8 620.199L215.1 651.199M376.2 620.199L322.5 651.199" stroke="red" stroke-linecap="round" stroke-linejoin="round"/>
<path d="M215.5 713.4L269.3 744.4M323 713.4L376.7 744.4M108 713.4L161.7 744.4M0.599609 713.4L54.2996 744.4M645.3 713.4L699.1 744.4M752.7 713.4L806.5 744.4M537.8 713.4L591.5 744.4M430.4 713.4L484.1 744.4M1075.2 713.4L1128.9 744.4M1182.6 713.4L1236.3 744.4M967.6 713.4L1021.4 744.4M860.2 713.4L914 744.4M1505 713.4L1558.8 744.4M1612.5 713.4L1666.2 744.4M1397.5 713.4L1451.3 744.4M1290.1 713.4L1343.9 744.4" stroke="red" stroke-linecap="round" stroke-linejoin="round"/>
<path d="M1397.6 713.4L1343.8 744.4M1290.2 713.4L1236.4 744.4M1505.1 713.4L1451.4 744.4M1612.5 713.4L1558.8 744.4M1719.5 713.4L1665.7 744.4M967.8 713.4L914 744.4M860.4 713.4L806.6 744.4M1075.3 713.4L1021.6 744.4M1182.7 713.4L1129 744.4M537.9 713.4L484.2 744.4M430.5 713.4L376.8 744.4M645.5 713.4L591.7 744.4M752.9 713.4L699.1 744.4M108 713.4L54.2998 744.4M215.6 713.4L161.8 744.4M323 713.4L269.2 744.4" stroke="red" stroke-linecap="round" stroke-linejoin="round"/>
<path d="M268.8 806.5L322.5 837.5M376.2 806.5L429.9 837.5M161.2 806.5L214.9 837.5M53.7998 806.5L107.6 837.5M698.5 806.5L752.3 837.5M806 806.5L859.7 837.5M591 806.5L644.8 837.5M483.6 806.5L537.3 837.5M1128.4 806.5L1182.2 837.5M1235.8 806.5L1289.6 837.5M1020.9 806.5L1074.6 837.5M913.5 806.5L967.2 837.5M1558.3 806.5L1612.1 837.5M1665.7 806.5L1719.5 837.5M1450.8 806.5L1504.5 837.5M1343.4 806.5L1397.1 837.5" stroke="red" stroke-linecap="round" stroke-linejoin="round"/>
<path d="M1450.8 806.5L1397.1 837.5M1343.4 806.5L1289.7 837.5M1558.4 806.5L1504.6 837.5M1665.8 806.5L1612 837.5M1021 806.5L967.3 837.5M913.6 806.5L859.9 837.5M1128.6 806.5L1074.8 837.5M1236 806.5L1182.2 837.5M591.1 806.5L537.4 837.5M483.7 806.5L430 837.5M698.7 806.5L645 837.5M806 806.5L752.3 837.5M161.3 806.5L107.5 837.5M53.9 806.5L0 837.5M268.8 806.5L215.1 837.5M376.2 806.5L322.5 837.5" stroke="red" stroke-linecap="round" stroke-linejoin="round"/>
</g>
<g opacity="0.7">
<path d="M644.8 651.2L591.2 682.3V744.4M1451.2 496L1397.6 527L1343.8 496" stroke="red" stroke-linecap="round" stroke-linejoin="round"/>
<path d="M1612.2 775.4L1666 806.5L1719.8 775.5" stroke="red"/>
<path d="M591.2 682.3L537.9 713.3L483.8 682.3L537.3 651.2V589L483.8 558V496" stroke="red" stroke-linecap="round" stroke-linejoin="round"/>
<path opacity="0.5" d="M107.5 651.2L161.3 682.3M161.3 682.3L108 713.3L53.7998 682.3L107.5 651.3V589.2L161.3 558.1L215 589.1V651.2L161.3 682.3ZM161.3 682.3V744.4L215 775.4L269.3 744.4L322.5 775.5V837.5L376.2 868.6L430 837.6V775.4L376.3 744.4V682.4L430 651.2L483.8 682.3" stroke="orange" stroke-linecap="round" stroke-linejoin="round"/>
<path d="M215.6 713.401L268.7 682.301L215 651.301" stroke="orange" stroke-linecap="round" stroke-linejoin="round"/>
<path d="M107.5 589.201L53.7002 558.001M53.8002 371.801L107.5 402.801V465.001" stroke="red" stroke-linecap="round" stroke-linejoin="round"/>
<path d="M107.5 278.599V216.599L161.2 185.299V123.299L107.6 92.1992L161.3 61.1992" stroke="orange" stroke-linecap="round" stroke-linejoin="round"/>
<path d="M161.2 123.301L215 92.3008L268.7 123.301V185.301L215 216.401L268.8 247.501" stroke="red" stroke-linecap="round" stroke-linejoin="round"/>
<path opacity="0.5" d="M107.5 216.5L161.3 247.5L215 216.5V278.5L268.7 309.6V371.6L322.5 402.8L376.2 371.7" stroke="red" stroke-linecap="round" stroke-linejoin="round"/>
<path d="M322.5 340.8L376.2 309.6L322.5 278.6V216.4L268.7 185.4M215 154.4L268.7 123.3L323 154.3M376.2 185.3L430 216.5M430 216.5V278.5M430 216.5L483.7 185.3V123.3L537.3 92.1996L537.5 30.0996M430 30.0996L483.7 61.1996" stroke="red" stroke-linecap="round" stroke-linejoin="round"/>
<path d="M483.7 123.301L537.7 154.301L591.2 123.301" stroke="red" stroke-linecap="round" stroke-linejoin="round"/>
<path opacity="0.5" d="M591.2 185.4L644.9 216.4V278.6L698.7 309.6L752.3 278.6L752.4 216.4L806.6 185.4L860 216.5" stroke="red" stroke-linecap="round" stroke-linejoin="round"/>
<path d="M645.5 340.699L698.7 309.699M698.7 309.699L752.8 340.699L806.2 309.699V371.699L752.5 402.799L698.7 371.799L644.9 402.799M698.7 309.699V371.699" stroke="red" stroke-linecap="round" stroke-linejoin="round"/>
<path d="M752.3 465L806.2 496L860 464.9V402.9L914 371.7L913.8 309.7L967.2 278.5L967.5 216.5L913.7 185.3V123.3L967.5 92.3V30" stroke="orange" stroke-linecap="round" stroke-linejoin="round"/>
<path d="M967.501 92.1992L1021.3 123.299M1021.3 123.299L967.501 154.399L913.801 123.399M1021.3 123.299L1075 92.1992" stroke="red" stroke-linecap="round" stroke-linejoin="round"/>
<path d="M1128.4 61.1996L1182.4 30.0996L1182.2 92.0996L1128.8 123.3V185.3L1075 216.4L1021.2 185.4" stroke="orange" stroke-linecap="round" stroke-linejoin="round"/>
<path d="M1075 216.4L1074.6 278.5L1128.7 309.6V371.7L1182.5 402.8" stroke="red" stroke-linecap="round" stroke-linejoin="round"/>
<path opacity="0.5" d="M1236.2 185.301L1290 216.401L1343.9 185.401L1343.8 123.401L1290 154.401L1236.2 123.301V185.301ZM1236.2 185.301L1182.2 216.401V278.501L1236.2 309.701L1182.5 340.701L1128.7 309.701" stroke="red" stroke-linecap="round" stroke-linejoin="round"/>
<path d="M1289.6 92.1992L1343.8 123.299L1397.1 92.1992M1343.9 185.299L1397.4 216.399M1397.4 216.399V278.499M1397.4 216.399L1451.2 185.399V123.299" stroke="red" stroke-linecap="round" stroke-linejoin="round"/>
<path opacity="0.5" d="M1505 216.4L1558.7 185.4L1612.4 216.4V278.6L1666.2 309.6V371.7L1612.4 402.7L1558.7 371.7V309.7L1612.5 340.7" stroke="red" stroke-linecap="round" stroke-linejoin="round"/>
<path d="M1666.2 247.5L1612.4 216.5L1558.3 247.5L1558.7 309.7L1505 340.7" stroke="orange" stroke-linecap="round" stroke-linejoin="round"/>
<path d="M1505 527.101L1451.2 495.901L1450.8 433.901L1504.9 402.801L1558.7 433.801M1665.7 558.001L1612.4 589.101M1612.4 589.101L1558.8 558.101L1505 589.101L1451.2 558.101M1612.4 589.101L1665.7 620.201M1612.4 837.501V775.501L1666.2 744.301M1612.4 775.401L1558.7 744.401V682.401L1504.5 651.201M1451.4 744.401V682.301L1397.1 651.201V589.201" stroke="red" stroke-linecap="round" stroke-linejoin="round"/>
<path d="M1343.8 682.301L1397.6 713.301L1451.4 682.301" stroke="red" stroke-linecap="round" stroke-linejoin="round"/>
<path opacity="0.5" d="M1397.5 775.401L1343.4 806.601L1290 775.401L1343.9 744.401L1397.5 775.401ZM1397.5 775.401L1451.4 744.401L1505 775.501L1558.7 744.301" stroke="red" stroke-linecap="round" stroke-linejoin="round"/>
<path d="M1289.6 651.2L1236.2 682.3V744.3L1290 775.4L1236 806.6V868.6M1075 775.4V837.5L1128.4 806.5V744.4L1075.2 713.4M1021.2 744.3V682.3L967.5 651.3L913.8 682.3L859.8 651.2L806.2 682.2L752.3 651.2L698.7 682.2L644.7 651.2V589" stroke="red" stroke-linecap="round" stroke-linejoin="round"/>
<path d="M913.8 682.301V744.401L967.5 775.401L1021.2 744.401L1075 775.401L1129 744.401L1236 806.601M1021.2 682.301L967.5 713.401M752.4 775.401L698.7 744.401V682.301" stroke="red" stroke-linecap="round" stroke-linejoin="round"/>
<path opacity="0.5" d="M752.401 775.4L698.601 806.6L752.301 837.6" stroke="red" stroke-linecap="round" stroke-linejoin="round"/>
<path d="M698.5 806.5L644.9 775.5L591 806.5" stroke="red" stroke-linecap="round" stroke-linejoin="round"/>
<path fill-rule="evenodd" clip-rule="evenodd" d="M752.901 775.5C769.384 775.5 785.192 768.952 796.847 757.297C808.503 745.641 815.051 729.833 815.051 713.35C815.051 696.867 808.503 681.059 796.847 669.403C785.192 657.748 769.384 651.2 752.901 651.2C736.417 651.2 720.609 657.748 708.954 669.403C697.299 681.059 690.751 696.867 690.751 713.35C690.751 729.833 697.299 745.641 708.954 757.297C720.609 768.952 736.417 775.5 752.901 775.5ZM430.001 216.2C438.156 216.2 446.231 214.594 453.765 211.473C461.3 208.352 468.145 203.778 473.912 198.011C479.678 192.245 484.253 185.399 487.374 177.865C490.494 170.33 492.101 162.255 492.101 154.1C492.101 145.945 490.494 137.87 487.374 130.335C484.253 122.801 479.678 115.955 473.912 110.189C468.145 104.422 461.3 99.8479 453.765 96.7271C446.231 93.6063 438.156 92 430.001 92C413.517 92 397.709 98.5479 386.054 110.203C374.399 121.859 367.851 137.667 367.851 154.15C367.851 170.633 374.399 186.441 386.054 198.097C397.709 209.752 413.517 216.3 430.001 216.3V216.2Z" stroke="red" stroke-linecap="round" stroke-linejoin="round" stroke-dasharray="2 3"/>
<path d="M152.9 775.4V774.4" stroke="orange" stroke-linecap="round" stroke-linejoin="round"/>
<path d="M153 771.4C153.808 755.362 160.798 740.26 172.502 729.265C184.206 718.27 199.714 712.236 215.772 712.43C231.829 712.624 247.187 719.031 258.622 730.306C270.057 741.581 276.68 756.847 277.1 772.9" stroke="orange" stroke-linecap="round" stroke-linejoin="round" stroke-dasharray="2 3"/>
<path d="M277.101 774.4V775.4" stroke="orange" stroke-linecap="round" stroke-linejoin="round"/>
<path fill-rule="evenodd" clip-rule="evenodd" d="M1531.7 513.7C1553.14 513.7 1573.71 505.182 1588.87 490.02C1604.03 474.857 1612.55 454.293 1612.55 432.85C1612.55 411.407 1604.03 390.843 1588.87 375.68C1573.71 360.518 1553.14 352 1531.7 352C1510.26 352 1489.69 360.518 1474.53 375.68C1459.37 390.843 1450.85 411.407 1450.85 432.85C1450.85 454.293 1459.37 474.857 1474.53 490.02C1489.69 505.182 1510.26 513.7 1531.7 513.7Z" stroke="red" stroke-linecap="round" stroke-linejoin="round" stroke-dasharray="1.99 2.99"/>
<path d="M376.3 219.9C378.233 219.9 379.8 218.333 379.8 216.4C379.8 214.467 378.233 212.9 376.3 212.9C374.367 212.9 372.8 214.467 372.8 216.4C372.8 218.333 374.367 219.9 376.3 219.9Z" fill="red"/>
<path d="M483.6 219.9C485.533 219.9 487.1 218.333 487.1 216.4C487.1 214.467 485.533 212.9 483.6 212.9C481.667 212.9 480.1 214.467 480.1 216.4C480.1 218.333 481.667 219.9 483.6 219.9Z" fill="red"/>
<path d="M430.2 95.4004C432.133 95.4004 433.7 93.8334 433.7 91.9004C433.7 89.9674 432.133 88.4004 430.2 88.4004C428.267 88.4004 426.7 89.9674 426.7 91.9004C426.7 93.8334 428.267 95.4004 430.2 95.4004Z" fill="red"/>
<path d="M483.8 64C485.733 64 487.3 62.433 487.3 60.5C487.3 58.567 485.733 57 483.8 57C481.867 57 480.3 58.567 480.3 60.5C480.3 62.433 481.867 64 483.8 64Z" fill="red"/>
<path d="M376.1 126.5C378.033 126.5 379.6 124.933 379.6 123C379.6 121.067 378.033 119.5 376.1 119.5C374.167 119.5 372.6 121.067 372.6 123C372.6 124.933 374.167 126.5 376.1 126.5Z" fill="red"/>
<path d="M323 158.4C324.933 158.4 326.5 156.833 326.5 154.9C326.5 152.967 324.933 151.4 323 151.4C321.067 151.4 319.5 152.967 319.5 154.9C319.5 156.833 321.067 158.4 323 158.4Z" fill="red"/>
<path d="M268.7 126.9C270.633 126.9 272.2 125.333 272.2 123.4C272.2 121.467 270.633 119.9 268.7 119.9C266.767 119.9 265.2 121.467 265.2 123.4C265.2 125.333 266.767 126.9 268.7 126.9Z" fill="red"/>
<path d="M269 188.699C270.933 188.699 272.5 187.132 272.5 185.199C272.5 183.266 270.933 181.699 269 181.699C267.067 181.699 265.5 183.266 265.5 185.199C265.5 187.132 267.067 188.699 269 188.699Z" fill="red"/>
<path d="M376.3 375.6C378.233 375.6 379.8 374.033 379.8 372.1C379.8 370.167 378.233 368.6 376.3 368.6C374.367 368.6 372.8 370.167 372.8 372.1C372.8 374.033 374.367 375.6 376.3 375.6Z" fill="red"/>
<path d="M107.7 468.4C109.633 468.4 111.2 466.833 111.2 464.9C111.2 462.967 109.633 461.4 107.7 461.4C105.767 461.4 104.2 462.967 104.2 464.9C104.2 466.833 105.767 468.4 107.7 468.4Z" fill="red"/>
<path d="M107.5 592.6C109.433 592.6 111 591.033 111 589.1C111 587.167 109.433 585.6 107.5 585.6C105.567 585.6 104 587.167 104 589.1C104 591.033 105.567 592.6 107.5 592.6Z" fill="orange"/>
<path d="M107.7 654.799C109.633 654.799 111.2 653.232 111.2 651.299C111.2 649.366 109.633 647.799 107.7 647.799C105.767 647.799 104.2 649.366 104.2 651.299C104.2 653.232 105.767 654.799 107.7 654.799Z" fill="orange"/>
<path d="M214.899 655.299C216.832 655.299 218.399 653.732 218.399 651.799C218.399 649.866 216.832 648.299 214.899 648.299C212.966 648.299 211.399 649.866 211.399 651.799C211.399 653.732 212.966 655.299 214.899 655.299Z" fill="orange"/>
<path d="M161.3 126.5C163.233 126.5 164.8 124.933 164.8 123C164.8 121.067 163.233 119.5 161.3 119.5C159.367 119.5 157.8 121.067 157.8 123C157.8 124.933 159.367 126.5 161.3 126.5Z" fill="orange"/>
<path d="M107.5 95.6992C109.433 95.6992 111 94.1322 111 92.1992C111 90.2662 109.433 88.6992 107.5 88.6992C105.567 88.6992 104 90.2662 104 92.1992C104 94.1322 105.567 95.6992 107.5 95.6992Z" fill="orange"/>
<path d="M376.1 188.699C378.033 188.699 379.6 187.132 379.6 185.199C379.6 183.266 378.033 181.699 376.1 181.699C374.167 181.699 372.6 183.266 372.6 185.199C372.6 187.132 374.167 188.699 376.1 188.699Z" fill="red"/>
<path d="M483.6 126.5C485.533 126.5 487.1 124.933 487.1 123C487.1 121.067 485.533 119.5 483.6 119.5C481.667 119.5 480.1 121.067 480.1 123C480.1 124.933 481.667 126.5 483.6 126.5Z" fill="red"/>
<path d="M591.2 188.699C593.133 188.699 594.7 187.132 594.7 185.199C594.7 183.266 593.133 181.699 591.2 181.699C589.267 181.699 587.7 183.266 587.7 185.199C587.7 187.132 589.267 188.699 591.2 188.699Z" fill="red"/>
<path d="M537 33.5996C538.933 33.5996 540.5 32.0326 540.5 30.0996C540.5 28.1666 538.933 26.5996 537 26.5996C535.067 26.5996 533.5 28.1666 533.5 30.0996C533.5 32.0326 535.067 33.5996 537 33.5996Z" fill="red"/>
<path d="M483.6 189.1C485.533 189.1 487.1 187.533 487.1 185.6C487.1 183.667 485.533 182.1 483.6 182.1C481.667 182.1 480.1 183.667 480.1 185.6C480.1 187.533 481.667 189.1 483.6 189.1Z" fill="red"/>
<path d="M268.7 716.9C270.633 716.9 272.2 715.333 272.2 713.4C272.2 711.467 270.633 709.9 268.7 709.9C266.767 709.9 265.2 711.467 265.2 713.4C265.2 715.333 266.767 716.9 268.7 716.9Z" fill="orange"/>
<path d="M376.8 747.799C378.733 747.799 380.3 746.232 380.3 744.299C380.3 742.366 378.733 740.799 376.8 740.799C374.867 740.799 373.3 742.366 373.3 744.299C373.3 746.232 374.867 747.799 376.8 747.799Z" fill="orange"/>
<path d="M698.7 685.799C700.633 685.799 702.2 684.232 702.2 682.299C702.2 680.366 700.633 678.799 698.7 678.799C696.767 678.799 695.2 680.366 695.2 682.299C695.2 684.232 696.767 685.799 698.7 685.799Z" fill="red"/>
<path d="M806.301 748C808.234 748 809.801 746.433 809.801 744.5C809.801 742.567 808.234 741 806.301 741C804.368 741 802.801 742.567 802.801 744.5C802.801 746.433 804.368 748 806.301 748Z" fill="red"/>
<path d="M967.801 716.9C969.734 716.9 971.301 715.333 971.301 713.4C971.301 711.467 969.734 709.9 967.801 709.9C965.868 709.9 964.301 711.467 964.301 713.4C964.301 715.333 965.868 716.9 967.801 716.9Z" fill="red"/>
<path d="M1074.7 717.199C1076.63 717.199 1078.2 715.632 1078.2 713.699C1078.2 711.766 1076.63 710.199 1074.7 710.199C1072.77 710.199 1071.2 711.766 1071.2 713.699C1071.2 715.632 1072.77 717.199 1074.7 717.199Z" fill="red"/>
<path d="M1128.8 747.4C1130.73 747.4 1132.3 745.833 1132.3 743.9C1132.3 741.967 1130.73 740.4 1128.8 740.4C1126.87 740.4 1125.3 741.967 1125.3 743.9C1125.3 745.833 1126.87 747.4 1128.8 747.4Z" fill="red"/>
<path d="M1289.9 778.5C1291.83 778.5 1293.4 776.933 1293.4 775C1293.4 773.067 1291.83 771.5 1289.9 771.5C1287.97 771.5 1286.4 773.067 1286.4 775C1286.4 776.933 1287.97 778.5 1289.9 778.5Z" fill="red"/>
<path d="M1236 872.9C1237.93 872.9 1239.5 871.333 1239.5 869.4C1239.5 867.467 1237.93 865.9 1236 865.9C1234.07 865.9 1232.5 867.467 1232.5 869.4C1232.5 871.333 1234.07 872.9 1236 872.9Z" fill="red"/>
<path d="M1289.9 654.9C1291.83 654.9 1293.4 653.333 1293.4 651.4C1293.4 649.467 1291.83 647.9 1289.9 647.9C1287.97 647.9 1286.4 649.467 1286.4 651.4C1286.4 653.333 1287.97 654.9 1289.9 654.9Z" fill="red"/>
<path d="M1451.4 685.5C1453.33 685.5 1454.9 683.933 1454.9 682C1454.9 680.067 1453.33 678.5 1451.4 678.5C1449.47 678.5 1447.9 680.067 1447.9 682C1447.9 683.933 1449.47 685.5 1451.4 685.5Z" fill="red"/>
<path d="M1504.5 655.199C1506.43 655.199 1508 653.632 1508 651.699C1508 649.766 1506.43 648.199 1504.5 648.199C1502.57 648.199 1501 649.766 1501 651.699C1501 653.632 1502.57 655.199 1504.5 655.199Z" fill="red"/>
<path d="M1451.4 748.4C1453.33 748.4 1454.9 746.833 1454.9 744.9C1454.9 742.967 1453.33 741.4 1451.4 741.4C1449.47 741.4 1447.9 742.967 1447.9 744.9C1447.9 746.833 1449.47 748.4 1451.4 748.4Z" fill="red"/>
<path d="M1612.5 779.4C1614.43 779.4 1616 777.833 1616 775.9C1616 773.967 1614.43 772.4 1612.5 772.4C1610.57 772.4 1609 773.967 1609 775.9C1609 777.833 1610.57 779.4 1612.5 779.4Z" fill="red"/>
<path d="M699.2 748C701.133 748 702.7 746.433 702.7 744.5C702.7 742.567 701.133 741 699.2 741C697.267 741 695.7 742.567 695.7 744.5C695.7 746.433 697.267 748 699.2 748Z" fill="red"/>
<path d="M806.301 685.799C808.234 685.799 809.801 684.232 809.801 682.299C809.801 680.366 808.234 678.799 806.301 678.799C804.368 678.799 802.801 680.366 802.801 682.299C802.801 684.232 804.368 685.799 806.301 685.799Z" fill="red"/>
<path d="M161.3 716.9C163.233 716.9 164.8 715.333 164.8 713.4C164.8 711.467 163.233 709.9 161.3 709.9C159.367 709.9 157.8 711.467 157.8 713.4C157.8 715.333 159.367 716.9 161.3 716.9Z" fill="orange"/>
<path d="M152.899 778.9C154.832 778.9 156.399 777.333 156.399 775.4C156.399 773.467 154.832 771.9 152.899 771.9C150.966 771.9 149.399 773.467 149.399 775.4C149.399 777.333 150.966 778.9 152.899 778.9Z" fill="orange"/>
<path d="M107.5 778.799C109.433 778.799 111 777.232 111 775.299C111 773.366 109.433 771.799 107.5 771.799C105.567 771.799 104 773.366 104 775.299C104 777.232 105.567 778.799 107.5 778.799Z" fill="red"/>
<path d="M-0.200195 778.9C1.7328 778.9 3.2998 777.333 3.2998 775.4C3.2998 773.467 1.7328 771.9 -0.200195 771.9C-2.13319 771.9 -3.7002 773.467 -3.7002 775.4C-3.7002 777.333 -2.13319 778.9 -0.200195 778.9Z" fill="red"/>
<path d="M1720 778.9C1721.93 778.9 1723.5 777.333 1723.5 775.4C1723.5 773.467 1721.93 771.9 1720 771.9C1718.07 771.9 1716.5 773.467 1716.5 775.4C1716.5 777.333 1718.07 778.9 1720 778.9Z" fill="red"/>
<path d="M277.2 778.9C279.133 778.9 280.7 777.333 280.7 775.4C280.7 773.467 279.133 771.9 277.2 771.9C275.267 771.9 273.7 773.467 273.7 775.4C273.7 777.333 275.267 778.9 277.2 778.9Z" fill="orange"/>
<path d="M484.1 686C486.033 686 487.6 684.433 487.6 682.5C487.6 680.567 486.033 679 484.1 679C482.167 679 480.6 680.567 480.6 682.5C480.6 684.433 482.167 686 484.1 686Z" fill="orange"/>
<path d="M591.2 747.699C593.133 747.699 594.7 746.132 594.7 744.199C594.7 742.266 593.133 740.699 591.2 740.699C589.267 740.699 587.7 742.266 587.7 744.199C587.7 746.132 589.267 747.699 591.2 747.699Z" fill="red"/>
<path d="M644.8 592.6C646.733 592.6 648.3 591.033 648.3 589.1C648.3 587.167 646.733 585.6 644.8 585.6C642.867 585.6 641.3 587.167 641.3 589.1C641.3 591.033 642.867 592.6 644.8 592.6Z" fill="red"/>
<path d="M376.3 216.4H483.6" stroke="red" stroke-linecap="round" stroke-linejoin="round"/>
<path d="M430.2 219.9C432.133 219.9 433.7 218.333 433.7 216.4C433.7 214.467 432.133 212.9 430.2 212.9C428.267 212.9 426.7 214.467 426.7 216.4C426.7 218.333 428.267 219.9 430.2 219.9Z" fill="red" stroke="red"/>
<path d="M214.6 158.4C216.533 158.4 218.1 156.833 218.1 154.9C218.1 152.967 216.533 151.4 214.6 151.4C212.667 151.4 211.1 152.967 211.1 154.9C211.1 156.833 212.667 158.4 214.6 158.4Z" fill="red" stroke="red"/>
<path d="M107.7 282.1C109.633 282.1 111.2 280.533 111.2 278.6C111.2 276.667 109.633 275.1 107.7 275.1C105.767 275.1 104.2 276.667 104.2 278.6C104.2 280.533 105.767 282.1 107.7 282.1Z" fill="red" stroke="orange"/>
<path d="M53.8994 374.9C55.8324 374.9 57.3994 373.333 57.3994 371.4C57.3994 369.467 55.8324 367.9 53.8994 367.9C51.9664 367.9 50.3994 369.467 50.3994 371.4C50.3994 373.333 51.9664 374.9 53.8994 374.9Z" fill="red" stroke="red"/>
<path d="M269.6 251C271.533 251 273.1 249.433 273.1 247.5C273.1 245.567 271.533 244 269.6 244C267.667 244 266.1 245.567 266.1 247.5C266.1 249.433 267.667 251 269.6 251Z" fill="red" stroke="red"/>
<path d="M215.2 219.9C217.133 219.9 218.7 218.333 218.7 216.4C218.7 214.467 217.133 212.9 215.2 212.9C213.267 212.9 211.7 214.467 211.7 216.4C211.7 218.333 213.267 219.9 215.2 219.9Z" fill="red" stroke="red"/>
<path d="M322.5 344.6C324.433 344.6 326 343.033 326 341.1C326 339.167 324.433 337.6 322.5 337.6C320.567 337.6 319 339.167 319 341.1C319 343.033 320.567 344.6 322.5 344.6Z" fill="red" stroke="red"/>
<path d="M161.3 685.6C163.233 685.6 164.8 684.033 164.8 682.1C164.8 680.167 163.233 678.6 161.3 678.6C159.367 678.6 157.8 680.167 157.8 682.1C157.8 684.033 159.367 685.6 161.3 685.6Z" fill="red" stroke="orange"/>
<path d="M322.5 841C324.433 841 326 839.433 326 837.5C326 835.567 324.433 834 322.5 834C320.567 834 319 835.567 319 837.5C319 839.433 320.567 841 322.5 841Z" fill="red" stroke="orange"/>
<path d="M591.2 686.299C593.133 686.299 594.7 684.732 594.7 682.799C594.7 680.866 593.133 679.299 591.2 679.299C589.267 679.299 587.7 680.866 587.7 682.799C587.7 684.732 589.267 686.299 591.2 686.299Z" fill="red" stroke="red"/>
<path d="M914.199 686C916.132 686 917.699 684.433 917.699 682.5C917.699 680.567 916.132 679 914.199 679C912.266 679 910.699 680.567 910.699 682.5C910.699 684.433 912.266 686 914.199 686Z" fill="red" stroke="red"/>
<path d="M1021.3 747.5C1023.23 747.5 1024.8 745.933 1024.8 744C1024.8 742.067 1023.23 740.5 1021.3 740.5C1019.37 740.5 1017.8 742.067 1017.8 744C1017.8 745.933 1019.37 747.5 1021.3 747.5Z" fill="red" stroke="red"/>
<path d="M1074.9 778.199C1076.83 778.199 1078.4 776.632 1078.4 774.699C1078.4 772.766 1076.83 771.199 1074.9 771.199C1072.97 771.199 1071.4 772.766 1071.4 774.699C1071.4 776.632 1072.97 778.199 1074.9 778.199Z" fill="red" stroke="red"/>
<path d="M1235.7 810C1237.63 810 1239.2 808.433 1239.2 806.5C1239.2 804.567 1237.63 803 1235.7 803C1233.77 803 1232.2 804.567 1232.2 806.5C1232.2 808.433 1233.77 810 1235.7 810Z" fill="red" stroke="red"/>
<path d="M1344 686.1C1345.93 686.1 1347.5 684.533 1347.5 682.6C1347.5 680.667 1345.93 679.1 1344 679.1C1342.07 679.1 1340.5 680.667 1340.5 682.6C1340.5 684.533 1342.07 686.1 1344 686.1Z" fill="red" stroke="red"/>
<path d="M1558.7 747.799C1560.63 747.799 1562.2 746.232 1562.2 744.299C1562.2 742.366 1560.63 740.799 1558.7 740.799C1556.77 740.799 1555.2 742.366 1555.2 744.299C1555.2 746.232 1556.77 747.799 1558.7 747.799Z" fill="red" stroke="red"/>
<path d="M1666 747.799C1667.93 747.799 1669.5 746.232 1669.5 744.299C1669.5 742.366 1667.93 740.799 1666 740.799C1664.07 740.799 1662.5 742.366 1662.5 744.299C1662.5 746.232 1664.07 747.799 1666 747.799Z" fill="red" stroke="red"/>
<path d="M1665.9 810C1667.83 810 1669.4 808.433 1669.4 806.5C1669.4 804.567 1667.83 803 1665.9 803C1663.97 803 1662.4 804.567 1662.4 806.5C1662.4 808.433 1663.97 810 1665.9 810Z" fill="red" stroke="red"/>
<path d="M1612.5 840.799C1614.43 840.799 1616 839.232 1616 837.299C1616 835.366 1614.43 833.799 1612.5 833.799C1610.57 833.799 1609 835.366 1609 837.299C1609 839.232 1610.57 840.799 1612.5 840.799Z" fill="red" stroke="red"/>
<path d="M1396.8 592.1C1398.73 592.1 1400.3 590.533 1400.3 588.6C1400.3 586.667 1398.73 585.1 1396.8 585.1C1394.87 585.1 1393.3 586.667 1393.3 588.6C1393.3 590.533 1394.87 592.1 1396.8 592.1Z" fill="red" stroke="red"/>
<path d="M483.7 499.6C485.633 499.6 487.2 498.033 487.2 496.1C487.2 494.167 485.633 492.6 483.7 492.6C481.767 492.6 480.2 494.167 480.2 496.1C480.2 498.033 481.767 499.6 483.7 499.6Z" fill="red" stroke="red"/>
<path d="M590.899 810C592.832 810 594.399 808.433 594.399 806.5C594.399 804.567 592.832 803 590.899 803C588.966 803 587.399 804.567 587.399 806.5C587.399 808.433 588.966 810 590.899 810Z" fill="red" stroke="red"/>
<path d="M269.1 313.4C271.033 313.4 272.6 311.833 272.6 309.9C272.6 307.967 271.033 306.4 269.1 306.4C267.167 306.4 265.6 307.967 265.6 309.9C265.6 311.833 267.167 313.4 269.1 313.4Z" fill="red" stroke="red"/>
<path d="M161.399 64.5996C163.332 64.5996 164.899 63.0326 164.899 61.0996C164.899 59.1666 163.332 57.5996 161.399 57.5996C159.466 57.5996 157.899 59.1666 157.899 61.0996C157.899 63.0326 159.466 64.5996 161.399 64.5996Z" fill="red" stroke="orange"/>
<path d="M161.3 713.4H268.7" stroke="orange" stroke-linecap="round" stroke-linejoin="round"/>
<path d="M215 716.9C216.933 716.9 218.5 715.333 218.5 713.4C218.5 711.467 216.933 709.9 215 709.9C213.067 709.9 211.5 711.467 211.5 713.4C211.5 715.333 213.067 716.9 215 716.9Z" fill="red" stroke="orange"/>
<path d="M1612 344.199C1613.93 344.199 1615.5 342.632 1615.5 340.699C1615.5 338.766 1613.93 337.199 1612 337.199C1610.07 337.199 1608.5 338.766 1608.5 340.699C1608.5 342.632 1610.07 344.199 1612 344.199Z" fill="red"/>
<path d="M1612.5 219.9C1614.43 219.9 1616 218.333 1616 216.4C1616 214.467 1614.43 212.9 1612.5 212.9C1610.57 212.9 1609 214.467 1609 216.4C1609 218.333 1610.57 219.9 1612.5 219.9Z" fill="orange"/>
<path d="M1558.3 313.1C1560.23 313.1 1561.8 311.533 1561.8 309.6C1561.8 307.667 1560.23 306.1 1558.3 306.1C1556.37 306.1 1554.8 307.667 1554.8 309.6C1554.8 311.533 1556.37 313.1 1558.3 313.1Z" fill="orange"/>
<path d="M1397.5 95.4004C1399.43 95.4004 1401 93.8334 1401 91.9004C1401 89.9674 1399.43 88.4004 1397.5 88.4004C1395.57 88.4004 1394 89.9674 1394 91.9004C1394 93.8334 1395.57 95.4004 1397.5 95.4004Z" fill="red"/>
<path d="M1343.7 188.9C1345.63 188.9 1347.2 187.333 1347.2 185.4C1347.2 183.467 1345.63 181.9 1343.7 181.9C1341.77 181.9 1340.2 183.467 1340.2 185.4C1340.2 187.333 1341.77 188.9 1343.7 188.9Z" fill="red"/>
<path d="M1128.7 313.299C1130.63 313.299 1132.2 311.732 1132.2 309.799C1132.2 307.866 1130.63 306.299 1128.7 306.299C1126.77 306.299 1125.2 307.866 1125.2 309.799C1125.2 311.732 1126.77 313.299 1128.7 313.299Z" fill="red"/>
<path d="M806.301 374.799C808.234 374.799 809.801 373.232 809.801 371.299C809.801 369.366 808.234 367.799 806.301 367.799C804.368 367.799 802.801 369.366 802.801 371.299C802.801 373.232 804.368 374.799 806.301 374.799Z" fill="red"/>
<path d="M752.3 468.4C754.233 468.4 755.8 466.833 755.8 464.9C755.8 462.967 754.233 461.4 752.3 461.4C750.367 461.4 748.8 462.967 748.8 464.9C748.8 466.833 750.367 468.4 752.3 468.4Z" fill="orange"/>
<path d="M644.8 344.6C646.733 344.6 648.3 343.033 648.3 341.1C648.3 339.167 646.733 337.6 644.8 337.6C642.867 337.6 641.3 339.167 641.3 341.1C641.3 343.033 642.867 344.6 644.8 344.6Z" fill="red"/>
<path d="M644.8 406.299C646.733 406.299 648.3 404.732 648.3 402.799C648.3 400.866 646.733 399.299 644.8 399.299C642.867 399.299 641.3 400.866 641.3 402.799C641.3 404.732 642.867 406.299 644.8 406.299Z" fill="red"/>
<path d="M1182.5 406.699C1184.43 406.699 1186 405.132 1186 403.199C1186 401.266 1184.43 399.699 1182.5 399.699C1180.57 399.699 1179 401.266 1179 403.199C1179 405.132 1180.57 406.699 1182.5 406.699Z" fill="red"/>
<path d="M1020.5 188.799C1022.43 188.799 1024 187.232 1024 185.299C1024 183.366 1022.43 181.799 1020.5 181.799C1018.57 181.799 1017 183.366 1017 185.299C1017 187.232 1018.57 188.799 1020.5 188.799Z" fill="orange"/>
<path d="M913.5 188.799C915.433 188.799 917 187.232 917 185.299C917 183.366 915.433 181.799 913.5 181.799C911.567 181.799 910 183.366 910 185.299C910 187.232 911.567 188.799 913.5 188.799Z" fill="orange"/>
<path d="M967.699 96C969.632 96 971.199 94.433 971.199 92.5C971.199 90.567 969.632 89 967.699 89C965.766 89 964.199 90.567 964.199 92.5C964.199 94.433 965.766 96 967.699 96Z" fill="orange"/>
<path d="M1128.4 64.7988C1130.33 64.7988 1131.9 63.2318 1131.9 61.2988C1131.9 59.3658 1130.33 57.7988 1128.4 57.7988C1126.47 57.7988 1124.9 59.3658 1124.9 61.2988C1124.9 63.2318 1126.47 64.7988 1128.4 64.7988Z" fill="orange"/>
<path d="M1076.1 95.4004C1078.03 95.4004 1079.6 93.8334 1079.6 91.9004C1079.6 89.9674 1078.03 88.4004 1076.1 88.4004C1074.17 88.4004 1072.6 89.9674 1072.6 91.9004C1072.6 93.8334 1074.17 95.4004 1076.1 95.4004Z" fill="red"/>
<path d="M1020.9 126.799C1022.83 126.799 1024.4 125.232 1024.4 123.299C1024.4 121.366 1022.83 119.799 1020.9 119.799C1018.97 119.799 1017.4 121.366 1017.4 123.299C1017.4 125.232 1018.97 126.799 1020.9 126.799Z" fill="red"/>
<path d="M1236.3 126.5C1238.23 126.5 1239.8 124.933 1239.8 123C1239.8 121.067 1238.23 119.5 1236.3 119.5C1234.37 119.5 1232.8 121.067 1232.8 123C1232.8 124.933 1234.37 126.5 1236.3 126.5Z" fill="red"/>
<path d="M1397.5 219.6C1399.43 219.6 1401 218.033 1401 216.1C1401 214.167 1399.43 212.6 1397.5 212.6C1395.57 212.6 1394 214.167 1394 216.1C1394 218.033 1395.57 219.6 1397.5 219.6Z" fill="red"/>
<path d="M1612 530.6C1613.93 530.6 1615.5 529.033 1615.5 527.1C1615.5 525.167 1613.93 523.6 1612 523.6C1610.07 523.6 1608.5 525.167 1608.5 527.1C1608.5 529.033 1610.07 530.6 1612 530.6Z" fill="red"/>
<path d="M1558.8 437.699C1560.73 437.699 1562.3 436.132 1562.3 434.199C1562.3 432.266 1560.73 430.699 1558.8 430.699C1556.87 430.699 1555.3 432.266 1555.3 434.199C1555.3 436.132 1556.87 437.699 1558.8 437.699Z" fill="red"/>
<path d="M1666 561.4C1667.93 561.4 1669.5 559.833 1669.5 557.9C1669.5 555.967 1667.93 554.4 1666 554.4C1664.07 554.4 1662.5 555.967 1662.5 557.9C1662.5 559.833 1664.07 561.4 1666 561.4Z" fill="red"/>
<path d="M1666 437.299C1667.93 437.299 1669.5 435.732 1669.5 433.799C1669.5 431.866 1667.93 430.299 1666 430.299C1664.07 430.299 1662.5 431.866 1662.5 433.799C1662.5 435.732 1664.07 437.299 1666 437.299Z" fill="red"/>
<path d="M1666 623.9C1667.93 623.9 1669.5 622.333 1669.5 620.4C1669.5 618.467 1667.93 616.9 1666 616.9C1664.07 616.9 1662.5 618.467 1662.5 620.4C1662.5 622.333 1664.07 623.9 1666 623.9Z" fill="red"/>
<path d="M1451 561.4C1452.93 561.4 1454.5 559.833 1454.5 557.9C1454.5 555.967 1452.93 554.4 1451 554.4C1449.07 554.4 1447.5 555.967 1447.5 557.9C1447.5 559.833 1449.07 561.4 1451 561.4Z" fill="red"/>
<path d="M1612 340.699V527.099" stroke="red" stroke-linecap="round" stroke-linejoin="round"/>
<path d="M1612.5 437C1614.43 437 1616 435.433 1616 433.5C1616 431.567 1614.43 430 1612.5 430C1610.57 430 1609 431.567 1609 433.5C1609 435.433 1610.57 437 1612.5 437Z" fill="red" stroke="red"/>
<path d="M1505.3 344.199C1507.23 344.199 1508.8 342.632 1508.8 340.699C1508.8 338.766 1507.23 337.199 1505.3 337.199C1503.37 337.199 1501.8 338.766 1501.8 340.699C1501.8 342.632 1503.37 344.199 1505.3 344.199Z" fill="red" stroke="orange"/>
<path d="M1666.9 251C1668.83 251 1670.4 249.433 1670.4 247.5C1670.4 245.567 1668.83 244 1666.9 244C1664.97 244 1663.4 245.567 1663.4 247.5C1663.4 249.433 1664.97 251 1666.9 251Z" fill="red" stroke="orange"/>
<path d="M1451.5 126.299C1453.43 126.299 1455 124.732 1455 122.799C1455 120.866 1453.43 119.299 1451.5 119.299C1449.57 119.299 1448 120.866 1448 122.799C1448 124.732 1449.57 126.299 1451.5 126.299Z" fill="red" stroke="red"/>
<path d="M1343.7 127C1345.63 127 1347.2 125.433 1347.2 123.5C1347.2 121.567 1345.63 120 1343.7 120C1341.77 120 1340.2 121.567 1340.2 123.5C1340.2 125.433 1341.77 127 1343.7 127Z" fill="red" stroke="red"/>
<path d="M1289.6 95.6992C1291.53 95.6992 1293.1 94.1322 1293.1 92.1992C1293.1 90.2662 1291.53 88.6992 1289.6 88.6992C1287.67 88.6992 1286.1 90.2662 1286.1 92.1992C1286.1 94.1322 1287.67 95.6992 1289.6 95.6992Z" fill="red" stroke="red"/>
<path d="M1236.4 188.799C1238.33 188.799 1239.9 187.232 1239.9 185.299C1239.9 183.366 1238.33 181.799 1236.4 181.799C1234.47 181.799 1232.9 183.366 1232.9 185.299C1232.9 187.232 1234.47 188.799 1236.4 188.799Z" fill="red" stroke="red"/>
<path d="M1235.9 313.299C1237.83 313.299 1239.4 311.732 1239.4 309.799C1239.4 307.866 1237.83 306.299 1235.9 306.299C1233.97 306.299 1232.4 307.866 1232.4 309.799C1232.4 311.732 1233.97 313.299 1235.9 313.299Z" fill="red" stroke="red"/>
<path d="M1074.8 219.9C1076.73 219.9 1078.3 218.333 1078.3 216.4C1078.3 214.467 1076.73 212.9 1074.8 212.9C1072.87 212.9 1071.3 214.467 1071.3 216.4C1071.3 218.333 1072.87 219.9 1074.8 219.9Z" fill="red" stroke="orange"/>
<path d="M1128.9 127.4C1130.83 127.4 1132.4 125.833 1132.4 123.9C1132.4 121.967 1130.83 120.4 1128.9 120.4C1126.97 120.4 1125.4 121.967 1125.4 123.9C1125.4 125.833 1126.97 127.4 1128.9 127.4Z" fill="red" stroke="orange"/>
<path d="M914.1 126.9C916.033 126.9 917.6 125.333 917.6 123.4C917.6 121.467 916.033 119.9 914.1 119.9C912.167 119.9 910.6 121.467 910.6 123.4C910.6 125.333 912.167 126.9 914.1 126.9Z" fill="red" stroke="orange"/>
<path d="M914.1 312.799C916.033 312.799 917.6 311.232 917.6 309.299C917.6 307.366 916.033 305.799 914.1 305.799C912.167 305.799 910.6 307.366 910.6 309.299C910.6 311.232 912.167 312.799 914.1 312.799Z" fill="red" stroke="orange"/>
<path d="M698.7 312.9C700.633 312.9 702.2 311.333 702.2 309.4C702.2 307.467 700.633 305.9 698.7 305.9C696.767 305.9 695.2 307.467 695.2 309.4C695.2 311.333 696.767 312.9 698.7 312.9Z" fill="red" stroke="red"/>
<path d="M860.1 406.299C862.033 406.299 863.6 404.732 863.6 402.799C863.6 400.866 862.033 399.299 860.1 399.299C858.167 399.299 856.6 400.866 856.6 402.799C856.6 404.732 858.167 406.299 860.1 406.299Z" fill="red" stroke="orange"/>
<path d="M752.5 219.9C754.433 219.9 756 218.333 756 216.4C756 214.467 754.433 212.9 752.5 212.9C750.567 212.9 749 214.467 749 216.4C749 218.333 750.567 219.9 752.5 219.9Z" fill="red" stroke="red"/>
<path d="M591.2 126.4C593.133 126.4 594.7 124.833 594.7 122.9C594.7 120.967 593.133 119.4 591.2 119.4C589.267 119.4 587.7 120.967 587.7 122.9C587.7 124.833 589.267 126.4 591.2 126.4Z" fill="red" stroke="red"/>
<path d="M429.7 33.5996C431.633 33.5996 433.2 32.0326 433.2 30.0996C433.2 28.1666 431.633 26.5996 429.7 26.5996C427.767 26.5996 426.2 28.1666 426.2 30.0996C426.2 32.0326 427.767 33.5996 429.7 33.5996Z" fill="red" stroke="red"/>
<path d="M967.699 34C969.632 34 971.199 32.433 971.199 30.5C971.199 28.567 969.632 27 967.699 27C965.766 27 964.199 28.567 964.199 30.5C964.199 32.433 965.766 34 967.699 34Z" fill="red" stroke="orange"/>
<path d="M1397.5 282.299C1399.43 282.299 1401 280.732 1401 278.799C1401 276.866 1399.43 275.299 1397.5 275.299C1395.57 275.299 1394 276.866 1394 278.799C1394 280.732 1395.57 282.299 1397.5 282.299Z" fill="red" stroke="red"/>
<path d="M1505.3 530.5C1507.23 530.5 1508.8 528.933 1508.8 527C1508.8 525.067 1507.23 523.5 1505.3 523.5C1503.37 523.5 1501.8 525.067 1501.8 527C1501.8 528.933 1503.37 530.5 1505.3 530.5Z" fill="red" stroke="red"/>
<path d="M1612.8 592C1614.73 592 1616.3 590.433 1616.3 588.5C1616.3 586.567 1614.73 585 1612.8 585C1610.87 585 1609.3 586.567 1609.3 588.5C1609.3 590.433 1610.87 592 1612.8 592Z" fill="red" stroke="red"/>
<path d="M1450.8 437C1452.73 437 1454.3 435.433 1454.3 433.5C1454.3 431.567 1452.73 430 1450.8 430C1448.87 430 1447.3 431.567 1447.3 433.5C1447.3 435.433 1448.87 437 1450.8 437Z" fill="red" stroke="red"/>
<path d="M1343.8 499.699C1345.73 499.699 1347.3 498.132 1347.3 496.199C1347.3 494.266 1345.73 492.699 1343.8 492.699C1341.87 492.699 1340.3 494.266 1340.3 496.199C1340.3 498.132 1341.87 499.699 1343.8 499.699Z" fill="red" stroke="red"/>
<path d="M53.8 557.8L0 527V464.8M1719.5 527.1V464.9L1665.7 433.9" stroke="red" stroke-linecap="round" stroke-linejoin="round"/>
<path d="M53.7998 561.299C55.7328 561.299 57.2998 559.732 57.2998 557.799C57.2998 555.866 55.7328 554.299 53.7998 554.299C51.8668 554.299 50.2998 555.866 50.2998 557.799C50.2998 559.732 51.8668 561.299 53.7998 561.299Z" fill="red" stroke="red"/>
<path d="M1719.5 92.1992L1666.2 123.199L1719.9 154.399" stroke="orange" stroke-linecap="round" stroke-linejoin="round"/>
<path d="M1666.5 126.799C1668.43 126.799 1670 125.232 1670 123.299C1670 121.366 1668.43 119.799 1666.5 119.799C1664.57 119.799 1663 121.366 1663 123.299C1663 125.232 1664.57 126.799 1666.5 126.799Z" fill="red" stroke="orange"/>
<path d="M0.0999999 92.1992L53.7 123.199L107.5 92.1992M53.8 185.299L0 154.399" stroke="orange" stroke-linecap="round" stroke-linejoin="round"/>
<path d="M53.7002 188.799C55.6332 188.799 57.2002 187.232 57.2002 185.299C57.2002 183.366 55.6332 181.799 53.7002 181.799C51.7672 181.799 50.2002 183.366 50.2002 185.299C50.2002 187.232 51.7672 188.799 53.7002 188.799Z" fill="red" stroke="orange"/>
<path d="M0 95.5996C1.933 95.5996 3.5 94.0326 3.5 92.0996C3.5 90.1666 1.933 88.5996 0 88.5996C-1.933 88.5996 -3.5 90.1666 -3.5 92.0996C-3.5 94.0326 -1.933 95.5996 0 95.5996Z" fill="red" stroke="orange"/>
<path d="M1720 95.5996C1721.93 95.5996 1723.5 94.0326 1723.5 92.0996C1723.5 90.1666 1721.93 88.5996 1720 88.5996C1718.07 88.5996 1716.5 90.1666 1716.5 92.0996C1716.5 94.0326 1718.07 95.5996 1720 95.5996Z" fill="red" stroke="orange"/>
<path d="M0 775.4L53.8 806.5L107.5 775.5" stroke="red"/>
</g>
</g>
</g>
</g>
<defs>
<clipPath id="clip0_192_3782">
<rect width="1720" height="900" fill="white"/>
</clipPath>
</defs>
</svg>
