<svg width="256" height="256" viewBox="0 0 256 256" fill="none" xmlns="http://www.w3.org/2000/svg">
<path d="M236.424 160.45C220.375 220.347 161.659 245.255 101.763 229.206C41.8669 213.157 3.4717 162.228 19.5209 102.331C35.57 42.435 94.2859 17.5266 154.182 33.5757C214.078 49.6249 252.474 100.554 236.424 160.45Z" fill="url(#paint0_radial_326_4895)"/>
<path fill-rule="evenodd" clip-rule="evenodd" d="M123.957 48.6481C163.55 21.5787 217.802 40.694 243.125 62.9655C248.247 65.7978 251.716 71.2544 251.716 77.5212C251.715 86.7007 244.273 94.1423 235.094 94.1423C233.781 94.1423 232.504 93.9886 231.279 93.7009C228.922 104.925 218.759 113.367 206.577 113.367C197.342 113.367 189.394 108.723 185.001 101.486C177.67 127.911 184.709 158.081 209.729 182.08C213.82 186.17 217.547 190.028 220.936 193.662C206.848 213.271 186.279 225.948 162.696 231.2C162.629 231.185 162.562 231.168 162.494 231.151C162.565 231.169 162.635 231.187 162.705 231.203C161.352 231.504 159.988 231.777 158.616 232.029C158.559 232.04 158.502 232.053 158.445 232.063L158.442 232.06C140.628 235.309 121.259 234.429 101.764 229.206C69.7097 220.617 43.8143 202.037 29.125 177.441C41.1939 163.901 52.9428 145.453 65.2988 127.016C82.5594 97.2075 101.663 63.8907 123.957 48.6481Z" fill="white"/>
<path fill-rule="evenodd" clip-rule="evenodd" d="M123.957 48.6481C163.55 21.5787 217.802 40.694 243.125 62.9655C248.247 65.7978 251.716 71.2544 251.716 77.5212C251.715 86.7007 244.273 94.1423 235.094 94.1423C233.781 94.1423 232.504 93.9886 231.279 93.7009C228.922 104.925 218.759 113.367 206.577 113.367C197.342 113.367 189.394 108.723 185.001 101.486C177.67 127.911 184.709 158.081 209.729 182.08C213.82 186.17 217.547 190.028 220.936 193.662C206.848 213.271 186.279 225.948 162.696 231.2C162.629 231.185 162.562 231.168 162.494 231.151C162.565 231.169 162.635 231.187 162.705 231.203C161.352 231.504 159.988 231.777 158.616 232.029C158.559 232.04 158.502 232.053 158.445 232.063L158.442 232.06C140.628 235.309 121.259 234.429 101.764 229.206C69.7097 220.617 43.8143 202.037 29.125 177.441C41.1939 163.901 52.9428 145.453 65.2988 127.016C82.5594 97.2075 101.663 63.8907 123.957 48.6481Z" fill="url(#paint1_linear_326_4895)"/>
<path fill-rule="evenodd" clip-rule="evenodd" d="M123.957 48.6481C163.55 21.5787 217.802 40.694 243.125 62.9655C248.247 65.7978 251.716 71.2544 251.716 77.5212C251.715 86.7007 244.273 94.1423 235.094 94.1423C233.781 94.1423 232.504 93.9886 231.279 93.7009C228.922 104.925 218.759 113.367 206.577 113.367C197.342 113.367 189.394 108.723 185.001 101.486C177.67 127.911 184.709 158.081 209.729 182.08C213.82 186.17 217.547 190.028 220.936 193.662C206.848 213.271 186.279 225.948 162.696 231.2C162.629 231.185 162.562 231.168 162.494 231.151C162.565 231.169 162.635 231.187 162.705 231.203C161.352 231.504 159.988 231.777 158.616 232.029C158.559 232.04 158.502 232.053 158.445 232.063L158.442 232.06C140.628 235.309 121.259 234.429 101.764 229.206C69.7097 220.617 43.8143 202.037 29.125 177.441C41.1939 163.901 52.9428 145.453 65.2988 127.016C82.5594 97.2075 101.663 63.8907 123.957 48.6481Z" fill="url(#paint2_linear_326_4895)" fill-opacity="0.2"/>
<path d="M158.445 232.063L158.443 232.061C158.522 232.046 158.602 232.033 158.682 232.018C158.603 232.032 158.524 232.049 158.445 232.063Z" fill="url(#paint3_linear_326_4895)"/>
<path d="M153.007 90.6956C156.504 96.5751 162.92 100.516 170.258 100.516C174.899 100.516 179.172 98.9383 182.571 96.2919C183.176 98.1267 183.996 99.8672 185.001 101.486C177.67 127.911 184.709 158.081 209.729 182.08C213.82 186.17 217.547 190.029 220.936 193.663C206.848 213.272 186.279 225.949 162.696 231.201C135.445 225.022 89.792 97.1917 153.007 90.6956Z" fill="url(#paint4_linear_326_4895)"/>
<defs>
<radialGradient id="paint0_radial_326_4895" cx="0" cy="0" r="1" gradientTransform="matrix(2.60619e-07 -192.156 214.428 -7.20433 127.613 219.374)" gradientUnits="userSpaceOnUse">
<stop stop-color="#2EE1DE"/>
<stop offset="1" stop-color="#173D7B"/>
</radialGradient>
<linearGradient id="paint1_linear_326_4895" x1="203.445" y1="21.9965" x2="202.649" y2="73.7583" gradientUnits="userSpaceOnUse">
<stop stop-color="#173D7B" stop-opacity="0.2"/>
<stop offset="1" stop-color="#2EE1DE" stop-opacity="0"/>
</linearGradient>
<linearGradient id="paint2_linear_326_4895" x1="109.104" y1="184.76" x2="95.313" y2="258.891" gradientUnits="userSpaceOnUse">
<stop stop-color="#004799" stop-opacity="0"/>
<stop offset="1" stop-color="#2EE1DE"/>
</linearGradient>
<linearGradient id="paint3_linear_326_4895" x1="103.932" y1="85.9187" x2="210.857" y2="205.075" gradientUnits="userSpaceOnUse">
<stop stop-color="#173D7B" stop-opacity="0.4"/>
<stop offset="1" stop-color="#2EE1DE" stop-opacity="0"/>
</linearGradient>
<linearGradient id="paint4_linear_326_4895" x1="103.932" y1="85.9187" x2="210.857" y2="205.075" gradientUnits="userSpaceOnUse">
<stop stop-color="#173D7B" stop-opacity="0.4"/>
<stop offset="1" stop-color="#2EE1DE" stop-opacity="0"/>
</linearGradient>
</defs>
</svg>
