<svg width="256" height="256" viewBox="0 0 256 256" fill="none" xmlns="http://www.w3.org/2000/svg">
<path d="M236.424 160.45C220.375 220.347 161.659 245.255 101.763 229.206C41.8669 213.157 3.4717 162.228 19.5209 102.331C35.57 42.435 94.2859 17.5266 154.182 33.5757C214.078 49.6249 252.474 100.554 236.424 160.45Z" fill="url(#paint0_radial_321_4570)"/>
<path d="M154.183 33.5759C94.2864 17.5267 35.5697 42.4355 19.5205 102.332L19.1543 103.733L25.3164 103.884C40.3033 47.9525 95.1128 23.9596 152.629 39.3708C210.145 54.7822 245.616 102.965 230.629 158.897L236.04 161.847L236.425 160.451C252.474 100.555 214.079 49.6252 154.183 33.5759Z" fill="black" fill-opacity="0.1"/>
<path fill-rule="evenodd" clip-rule="evenodd" d="M123.957 48.6481C163.55 21.5787 217.802 40.694 243.125 62.9655C248.247 65.7978 251.716 71.2544 251.716 77.5212C251.715 86.7007 244.273 94.1423 235.094 94.1423C233.781 94.1423 232.504 93.9886 231.279 93.7009C228.922 104.925 218.759 113.367 206.577 113.367C197.342 113.367 189.394 108.723 185.001 101.486C177.67 127.911 184.709 158.081 209.729 182.08C213.82 186.17 217.547 190.028 220.936 193.662C206.848 213.271 186.279 225.948 162.696 231.2C162.629 231.185 162.562 231.168 162.494 231.151C162.565 231.169 162.635 231.187 162.705 231.203C161.352 231.504 159.988 231.777 158.616 232.029C158.559 232.04 158.502 232.053 158.445 232.063L158.442 232.06C140.628 235.309 121.259 234.429 101.764 229.206C69.7097 220.617 43.8143 202.037 29.125 177.441C41.1939 163.901 52.9428 145.453 65.2988 127.016C82.5594 97.2075 101.663 63.8907 123.957 48.6481Z" fill="white"/>
<path fill-rule="evenodd" clip-rule="evenodd" d="M123.957 48.6481C163.55 21.5787 217.802 40.694 243.125 62.9655C248.247 65.7978 251.716 71.2544 251.716 77.5212C251.715 86.7007 244.273 94.1423 235.094 94.1423C233.781 94.1423 232.504 93.9886 231.279 93.7009C228.922 104.925 218.759 113.367 206.577 113.367C197.342 113.367 189.394 108.723 185.001 101.486C177.67 127.911 184.709 158.081 209.729 182.08C213.82 186.17 217.547 190.028 220.936 193.662C206.848 213.271 186.279 225.948 162.696 231.2C162.629 231.185 162.562 231.168 162.494 231.151C162.565 231.169 162.635 231.187 162.705 231.203C161.352 231.504 159.988 231.777 158.616 232.029C158.559 232.04 158.502 232.053 158.445 232.063L158.442 232.06C140.628 235.309 121.259 234.429 101.764 229.206C69.7097 220.617 43.8143 202.037 29.125 177.441C41.1939 163.901 52.9428 145.453 65.2988 127.016C82.5594 97.2075 101.663 63.8907 123.957 48.6481Z" fill="url(#paint1_linear_321_4570)"/>
<path fill-rule="evenodd" clip-rule="evenodd" d="M123.957 48.6481C163.55 21.5787 217.802 40.694 243.125 62.9655C248.247 65.7978 251.716 71.2544 251.716 77.5212C251.715 86.7007 244.273 94.1423 235.094 94.1423C233.781 94.1423 232.504 93.9886 231.279 93.7009C228.922 104.925 218.759 113.367 206.577 113.367C197.342 113.367 189.394 108.723 185.001 101.486C177.67 127.911 184.709 158.081 209.729 182.08C213.82 186.17 217.547 190.028 220.936 193.662C206.848 213.271 186.279 225.948 162.696 231.2C162.629 231.185 162.562 231.168 162.494 231.151C162.565 231.169 162.635 231.187 162.705 231.203C161.352 231.504 159.988 231.777 158.616 232.029C158.559 232.04 158.502 232.053 158.445 232.063L158.442 232.06C140.628 235.309 121.259 234.429 101.764 229.206C69.7097 220.617 43.8143 202.037 29.125 177.441C41.1939 163.901 52.9428 145.453 65.2988 127.016C82.5594 97.2075 101.663 63.8907 123.957 48.6481Z" fill="url(#paint2_linear_321_4570)" fill-opacity="0.2"/>
<path d="M236.04 161.847L236.425 160.451L230.629 158.897C215.642 214.829 160.833 238.822 103.316 223.411C45.8003 207.999 10.3296 159.817 25.3164 103.884L19.5205 102.332L19.1543 103.733C4.07248 163.021 42.3346 213.282 101.763 229.206C161.191 245.13 219.457 220.733 236.04 161.847Z" fill="black" fill-opacity="0.1"/>
<path d="M158.445 232.063L158.443 232.061C158.522 232.046 158.602 232.033 158.682 232.018C158.603 232.032 158.524 232.049 158.445 232.063Z" fill="url(#paint3_linear_321_4570)"/>
<path d="M153.007 90.6956C156.504 96.5751 162.92 100.516 170.258 100.516C174.899 100.516 179.172 98.9383 182.571 96.2919C183.176 98.1267 183.996 99.8672 185.001 101.486C177.67 127.911 184.709 158.081 209.729 182.08C213.82 186.17 217.547 190.029 220.936 193.663C206.848 213.272 186.279 225.949 162.696 231.201C135.445 225.022 89.792 97.1917 153.007 90.6956Z" fill="url(#paint4_linear_321_4570)"/>
<path d="M188.271 94.4111C190.729 101.861 197.943 107.367 206.577 107.367V113.367L206.052 113.362C195.056 113.143 185.79 106.043 182.572 96.291C179.173 98.9378 174.9 100.516 170.259 100.516V94.5156C173.517 94.5156 176.502 93.4129 178.886 91.5567L185.603 86.3262L188.271 94.4111ZM232.651 87.8604C233.434 88.0443 234.251 88.1426 235.094 88.1426V94.1426L234.604 94.1358C233.463 94.1024 232.351 93.9529 231.279 93.7012C228.922 104.925 218.759 113.367 206.577 113.367V107.367C215.956 107.367 223.641 100.879 225.407 92.4678L226.67 86.4551L232.651 87.8604ZM245.716 77.5215C245.716 73.5256 243.511 70.0357 240.222 68.2168L239.651 67.9014L239.162 67.4707C227.326 57.0607 208.416 47.1781 187.757 43.1954C167.154 39.2234 145.452 41.2216 127.344 53.6016C117.103 60.603 107.252 72.0278 97.6641 85.7989C88.1149 99.5138 79.1542 115.063 70.4912 130.023L70.3926 130.193L70.2832 130.356C59.0613 147.101 47.9511 164.475 36.5693 178.002C50.6774 199.288 74.1755 215.602 103.316 223.41C118.356 227.44 133.243 228.755 147.27 227.518C143.181 222.99 139.205 217.109 135.546 210.458C128.123 196.963 121.631 179.633 118.053 162.29C114.5 145.07 113.667 127.102 118.307 112.687C120.654 105.393 124.468 98.8187 130.217 93.8184C136.003 88.7856 143.407 85.65 152.394 84.7266L156.205 84.335L158.163 87.6279C160.624 91.7655 165.124 94.5156 170.259 94.5156V100.516L169.573 100.504C162.523 100.267 156.395 96.391 153.007 90.6953C89.785 97.1919 135.455 225.049 162.705 231.203C144.332 235.296 124.13 234.881 103.737 229.721L101.764 229.206C70.2104 220.751 44.6245 202.616 29.8213 178.59L29.125 177.441C41.1939 163.901 52.9429 145.454 65.2988 127.017C82.2896 97.6736 101.066 64.9313 122.914 49.376L123.957 48.6485C163.55 21.5791 217.802 40.6943 243.125 62.9659C248.247 65.7981 251.716 71.2547 251.716 77.5215L251.71 77.9502C251.482 86.9315 244.13 94.1426 235.094 94.1426V88.1426C240.96 88.1426 245.715 83.3871 245.716 77.5215Z" fill="url(#paint5_linear_321_4570)" fill-opacity="0.2"/>
<defs>
<radialGradient id="paint0_radial_321_4570" cx="0" cy="0" r="1" gradientTransform="matrix(2.60619e-07 -192.156 214.428 -7.20433 127.613 219.374)" gradientUnits="userSpaceOnUse">
<stop stop-color="#2EE1DE"/>
<stop offset="1" stop-color="#173D7B"/>
</radialGradient>
<linearGradient id="paint1_linear_321_4570" x1="203.445" y1="21.9965" x2="202.649" y2="73.7583" gradientUnits="userSpaceOnUse">
<stop stop-color="#173D7B" stop-opacity="0.2"/>
<stop offset="1" stop-color="#2EE1DE" stop-opacity="0"/>
</linearGradient>
<linearGradient id="paint2_linear_321_4570" x1="109.104" y1="184.76" x2="95.313" y2="258.891" gradientUnits="userSpaceOnUse">
<stop stop-color="#004799" stop-opacity="0"/>
<stop offset="1" stop-color="#2EE1DE"/>
</linearGradient>
<linearGradient id="paint3_linear_321_4570" x1="103.932" y1="85.9187" x2="210.857" y2="205.075" gradientUnits="userSpaceOnUse">
<stop stop-color="#173D7B" stop-opacity="0.4"/>
<stop offset="1" stop-color="#2EE1DE" stop-opacity="0"/>
</linearGradient>
<linearGradient id="paint4_linear_321_4570" x1="103.932" y1="85.9187" x2="210.857" y2="205.075" gradientUnits="userSpaceOnUse">
<stop stop-color="#173D7B" stop-opacity="0.4"/>
<stop offset="1" stop-color="#2EE1DE" stop-opacity="0"/>
</linearGradient>
<linearGradient id="paint5_linear_321_4570" x1="116.616" y1="170.577" x2="222.48" y2="30.2046" gradientUnits="userSpaceOnUse">
<stop stop-color="#2EE1DE" stop-opacity="0"/>
<stop offset="1" stop-color="#173D7B"/>
</linearGradient>
</defs>
</svg>
