<svg width="1166" height="304" viewBox="0 0 1166 304" fill="none" xmlns="http://www.w3.org/2000/svg">
<path d="M260.424 184.45C244.375 244.347 185.659 269.255 125.763 253.206C65.8669 237.157 27.4717 186.228 43.5209 126.331C59.57 66.4351 118.286 41.5266 178.182 57.5757C238.078 73.6249 276.474 124.554 260.424 184.45Z" fill="url(#paint0_radial_326_4760)"/>
<path fill-rule="evenodd" clip-rule="evenodd" d="M147.957 72.6485C187.55 45.5791 241.802 64.6943 267.125 86.9659C270.897 89.7605 275.716 95.2547 275.716 101.522C275.715 110.701 268.273 118.143 259.094 118.143C257.781 118.143 256.504 117.989 255.279 117.701C252.922 128.925 242.759 137.367 230.577 137.367C221.342 137.367 213.394 132.723 209.001 125.486C201.67 151.912 208.709 182.082 233.729 206.08C237.82 210.171 241.547 214.028 244.936 217.662C230.848 237.272 210.279 249.948 186.696 255.2C186.629 255.185 186.562 255.168 186.494 255.151C186.565 255.169 186.635 255.187 186.705 255.203C185.352 255.505 183.988 255.777 182.616 256.029C182.559 256.04 182.502 256.053 182.445 256.064L182.442 256.061C164.628 259.309 145.259 258.43 125.764 253.206C93.7097 244.617 67.8143 226.038 53.125 201.441C49.7533 195.796 47.5035 190.594 46.0832 187.026C70.3814 175.41 81.6648 162.408 89.2989 151.017C106.559 121.208 125.663 87.8911 147.957 72.6485Z" fill="white"/>
<path fill-rule="evenodd" clip-rule="evenodd" d="M147.957 72.6485C187.55 45.5791 241.802 64.6943 267.125 86.9659C270.897 89.7605 275.716 95.2547 275.716 101.522C275.715 110.701 268.273 118.143 259.094 118.143C257.781 118.143 256.504 117.989 255.279 117.701C252.922 128.925 242.759 137.367 230.577 137.367C221.342 137.367 213.394 132.723 209.001 125.486C201.67 151.912 208.709 182.082 233.729 206.08C237.82 210.171 241.547 214.028 244.936 217.662C230.848 237.272 210.279 249.948 186.696 255.2C186.629 255.185 186.562 255.168 186.494 255.151C186.565 255.169 186.635 255.187 186.705 255.203C185.352 255.505 183.988 255.777 182.616 256.029C182.559 256.04 182.502 256.053 182.445 256.064L182.442 256.061C164.628 259.309 145.259 258.43 125.764 253.206C93.7097 244.617 67.8143 226.038 53.125 201.441C49.7533 195.796 47.5035 190.594 46.0832 187.026C70.3814 175.41 81.6648 162.408 89.2989 151.017C106.559 121.208 125.663 87.8911 147.957 72.6485Z" fill="url(#paint1_linear_326_4760)"/>
<path fill-rule="evenodd" clip-rule="evenodd" d="M147.957 72.6485C187.55 45.5791 241.802 64.6943 267.125 86.9659C270.897 89.7605 275.716 95.2547 275.716 101.522C275.715 110.701 268.273 118.143 259.094 118.143C257.781 118.143 256.504 117.989 255.279 117.701C252.922 128.925 242.759 137.367 230.577 137.367C221.342 137.367 213.394 132.723 209.001 125.486C201.67 151.912 208.709 182.082 233.729 206.08C237.82 210.171 241.547 214.028 244.936 217.662C230.848 237.272 210.279 249.948 186.696 255.2C186.629 255.185 186.562 255.168 186.494 255.151C186.565 255.169 186.635 255.187 186.705 255.203C185.352 255.505 183.988 255.777 182.616 256.029C182.559 256.04 182.502 256.053 182.445 256.064L182.442 256.061C164.628 259.309 145.259 258.43 125.764 253.206C93.7097 244.617 67.8143 226.038 53.125 201.441C49.7533 195.796 47.5035 190.594 46.0832 187.026C70.3814 175.41 81.6648 162.408 89.2989 151.017C106.559 121.208 125.663 87.8911 147.957 72.6485Z" fill="url(#paint2_linear_326_4760)" fill-opacity="0.2"/>
<path d="M182.445 256.063L182.443 256.061C182.522 256.046 182.602 256.033 182.681 256.018C182.603 256.033 182.524 256.049 182.445 256.063Z" fill="#CCDFEB"/>
<path d="M177.007 114.696C180.504 120.575 186.92 124.516 194.258 124.516C198.899 124.516 203.172 122.938 206.571 120.292C207.176 122.127 207.996 123.867 209.001 125.486C201.67 151.911 208.709 182.081 233.729 206.08C237.82 210.171 241.547 214.029 244.936 217.663C230.848 237.272 210.279 249.949 186.696 255.201C159.445 249.022 113.792 121.192 177.007 114.696Z" fill="#CCDFEB"/>
<path d="M1113.49 84.604C1115.77 84.604 1118.11 84.904 1120.51 85.504C1122.91 86.104 1124.89 87.124 1126.45 88.564C1128.13 89.884 1128.97 91.744 1128.97 94.144C1128.97 96.544 1128.25 98.524 1126.81 100.084C1125.37 101.524 1123.69 102.244 1121.77 102.244C1120.57 102.244 1118.95 102.004 1116.91 101.524C1114.87 100.924 1112.83 100.624 1110.79 100.624C1108.03 100.624 1105.81 101.284 1104.13 102.604C1102.45 103.804 1101.25 105.364 1100.53 107.284C1099.81 109.084 1099.45 110.884 1099.45 112.684V208.444C1099.45 211.084 1098.55 213.304 1096.75 215.104C1095.07 216.784 1092.97 217.624 1090.45 217.624C1087.81 217.624 1085.65 216.784 1083.97 215.104C1082.29 213.304 1081.45 211.084 1081.45 208.444V112.864C1081.45 104.584 1084.15 97.804 1089.55 92.524C1095.07 87.244 1103.05 84.604 1113.49 84.604ZM1117.09 124.564C1119.49 124.564 1121.47 125.344 1123.03 126.904C1124.59 128.464 1125.37 130.444 1125.37 132.844C1125.37 135.244 1124.59 137.224 1123.03 138.784C1121.47 140.344 1119.49 141.124 1117.09 141.124H1070.47C1068.19 141.124 1066.21 140.344 1064.53 138.784C1062.97 137.224 1062.19 135.244 1062.19 132.844C1062.19 130.444 1062.97 128.464 1064.53 126.904C1066.21 125.344 1068.19 124.564 1070.47 124.564H1117.09Z" fill="white"/>
<path d="M1003.15 217.624C1000.51 217.624 998.351 216.784 996.671 215.104C994.991 213.304 994.151 211.084 994.151 208.444V132.124C994.151 129.484 994.991 127.324 996.671 125.644C998.351 123.844 1000.51 122.944 1003.15 122.944C1005.67 122.944 1007.77 123.844 1009.45 125.644C1011.25 127.324 1012.15 129.484 1012.15 132.124V152.284L1010.35 144.544C1011.31 141.184 1012.75 138.064 1014.67 135.184C1016.71 132.304 1019.11 129.784 1021.87 127.624C1024.63 125.464 1027.69 123.784 1031.05 122.584C1034.53 121.384 1038.13 120.784 1041.85 120.784C1044.97 120.784 1047.67 121.624 1049.95 123.304C1052.23 124.984 1053.37 127.084 1053.37 129.604C1053.37 132.844 1052.53 135.244 1050.85 136.804C1049.17 138.244 1047.31 138.964 1045.27 138.964C1043.47 138.964 1041.73 138.604 1040.05 137.884C1038.37 137.044 1036.39 136.624 1034.11 136.624C1031.59 136.624 1029.01 137.284 1026.37 138.604C1023.73 139.924 1021.33 141.904 1019.17 144.544C1017.01 147.064 1015.27 150.064 1013.95 153.544C1012.75 157.024 1012.15 160.924 1012.15 165.244V208.444C1012.15 211.084 1011.25 213.304 1009.45 215.104C1007.77 216.784 1005.67 217.624 1003.15 217.624Z" fill="white"/>
<path d="M960.121 122.944C962.641 122.944 964.741 123.844 966.421 125.644C968.221 127.324 969.121 129.484 969.121 132.124V179.464C969.121 191.944 965.641 201.724 958.681 208.804C951.721 215.764 941.881 219.244 929.161 219.244C916.561 219.244 906.781 215.764 899.821 208.804C892.981 201.724 889.561 191.944 889.561 179.464V132.124C889.561 129.484 890.401 127.324 892.081 125.644C893.761 123.844 895.921 122.944 898.561 122.944C901.081 122.944 903.181 123.844 904.861 125.644C906.661 127.324 907.561 129.484 907.561 132.124V179.464C907.561 187.264 909.361 193.084 912.961 196.924C916.681 200.764 922.081 202.684 929.161 202.684C936.361 202.684 941.821 200.764 945.541 196.924C949.261 193.084 951.121 187.264 951.121 179.464V132.124C951.121 129.484 951.961 127.324 953.641 125.644C955.321 123.844 957.481 122.944 960.121 122.944Z" fill="white"/>
<path d="M824.948 219.424C816.308 219.424 808.628 218.224 801.908 215.824C795.188 213.424 788.768 209.464 782.648 203.944C781.328 202.984 780.308 201.844 779.588 200.524C778.988 199.084 778.688 197.644 778.688 196.204C778.688 193.924 779.528 191.884 781.208 190.084C782.888 188.284 784.988 187.384 787.508 187.384C789.428 187.384 791.228 188.044 792.908 189.364C797.468 193.564 802.208 196.744 807.128 198.904C812.168 201.064 818.048 202.144 824.768 202.144C829.568 202.144 833.948 201.364 837.908 199.804C841.988 198.244 845.228 196.144 847.628 193.504C850.028 190.864 851.228 187.804 851.228 184.324C851.228 180.004 849.968 176.464 847.448 173.704C845.048 170.824 841.508 168.484 836.828 166.684C832.268 164.764 826.748 163.144 820.268 161.824C814.268 160.744 808.868 159.244 804.068 157.324C799.388 155.404 795.368 153.004 792.008 150.124C788.648 147.124 786.068 143.584 784.268 139.504C782.468 135.424 781.568 130.684 781.568 125.284C781.568 117.964 783.488 111.664 787.328 106.384C791.168 101.104 796.388 97.024 802.988 94.144C809.588 91.264 817.028 89.824 825.308 89.824C832.868 89.824 839.948 91.024 846.548 93.424C853.148 95.704 858.488 98.824 862.568 102.784C865.448 105.304 866.888 108.004 866.888 110.884C866.888 113.044 865.988 115.084 864.188 117.004C862.508 118.804 860.528 119.704 858.248 119.704C856.568 119.704 855.128 119.224 853.928 118.264C852.008 116.224 849.428 114.424 846.188 112.864C842.948 111.184 839.468 109.804 835.748 108.724C832.148 107.644 828.668 107.104 825.308 107.104C819.908 107.104 815.288 107.884 811.448 109.444C807.608 110.884 804.668 112.924 802.628 115.564C800.588 118.084 799.568 121.084 799.568 124.564C799.568 128.644 800.708 132.004 802.988 134.644C805.388 137.284 808.688 139.444 812.888 141.124C817.088 142.684 821.888 144.124 827.288 145.444C833.888 146.884 839.768 148.504 844.928 150.304C850.208 152.104 854.648 154.444 858.248 157.324C861.848 160.084 864.608 163.564 866.528 167.764C868.448 171.964 869.408 177.184 869.408 183.424C869.408 190.624 867.368 196.924 863.288 202.324C859.208 207.724 853.808 211.924 847.088 214.924C840.488 217.924 833.108 219.424 824.948 219.424Z" fill="white"/>
<path d="M726.876 120.784C735.396 120.784 741.996 122.584 746.676 126.184C751.356 129.664 754.596 134.404 756.396 140.404C758.316 146.284 759.276 152.884 759.276 160.204V208.444C759.276 211.084 758.376 213.304 756.576 215.104C754.896 216.784 752.796 217.624 750.276 217.624C747.636 217.624 745.476 216.784 743.796 215.104C742.116 213.304 741.276 211.084 741.276 208.444V160.384C741.276 156.064 740.676 152.224 739.476 148.864C738.276 145.384 736.176 142.624 733.176 140.584C730.296 138.424 726.216 137.344 720.936 137.344C716.016 137.344 711.696 138.424 707.976 140.584C704.256 142.624 701.316 145.384 699.156 148.864C697.116 152.224 696.096 156.064 696.096 160.384V208.444C696.096 211.084 695.196 213.304 693.396 215.104C691.716 216.784 689.616 217.624 687.096 217.624C684.456 217.624 682.296 216.784 680.616 215.104C678.936 213.304 678.096 211.084 678.096 208.444V132.124C678.096 129.484 678.936 127.324 680.616 125.644C682.296 123.844 684.456 122.944 687.096 122.944C689.616 122.944 691.716 123.844 693.396 125.644C695.196 127.324 696.096 129.484 696.096 132.124V142.204L692.856 144.004C693.696 141.364 695.136 138.724 697.176 136.084C699.336 133.324 701.916 130.804 704.916 128.524C707.916 126.124 711.276 124.264 714.996 122.944C718.716 121.504 722.676 120.784 726.876 120.784Z" fill="white"/>
<path d="M617.43 219.424C607.47 219.424 598.83 217.384 591.51 213.304C584.19 209.104 578.49 203.404 574.41 196.204C570.45 188.884 568.47 180.544 568.47 171.184C568.47 160.624 570.57 151.624 574.77 144.184C579.09 136.624 584.67 130.864 591.51 126.904C598.35 122.824 605.61 120.784 613.29 120.784C619.17 120.784 624.75 121.984 630.03 124.384C635.31 126.664 639.99 129.904 644.07 134.104C648.27 138.184 651.57 143.044 653.97 148.684C656.37 154.204 657.63 160.264 657.75 166.864C657.63 169.264 656.67 171.244 654.87 172.804C653.07 174.364 650.97 175.144 648.57 175.144H578.55L574.23 159.844H641.91L638.49 163.084V158.584C638.25 154.384 636.87 150.724 634.35 147.604C631.83 144.364 628.71 141.904 624.99 140.224C621.27 138.424 617.37 137.524 613.29 137.524C609.69 137.524 606.21 138.124 602.85 139.324C599.61 140.404 596.67 142.204 594.03 144.724C591.51 147.244 589.47 150.604 587.91 154.804C586.47 158.884 585.75 163.984 585.75 170.104C585.75 176.704 587.13 182.464 589.89 187.384C592.65 192.304 596.37 196.144 601.05 198.904C605.73 201.544 610.89 202.864 616.53 202.864C620.97 202.864 624.63 202.444 627.51 201.604C630.39 200.644 632.79 199.504 634.71 198.184C636.63 196.864 638.31 195.604 639.75 194.404C641.55 193.324 643.35 192.784 645.15 192.784C647.31 192.784 649.11 193.564 650.55 195.124C651.99 196.564 652.71 198.304 652.71 200.344C652.71 202.984 651.39 205.384 648.75 207.544C645.51 210.664 641.01 213.424 635.25 215.824C629.61 218.224 623.67 219.424 617.43 219.424Z" fill="white"/>
<path d="M509.234 121.324C517.634 121.324 525.074 123.424 531.554 127.624C538.154 131.824 543.374 137.584 547.214 144.904C551.054 152.104 552.974 160.504 552.974 170.104C552.974 179.704 551.054 188.224 547.214 195.664C543.374 202.984 538.214 208.744 531.734 212.944C525.254 217.144 517.934 219.244 509.774 219.244C505.214 219.244 500.894 218.524 496.814 217.084C492.734 215.644 489.134 213.784 486.014 211.504C482.894 209.104 480.314 206.584 478.274 203.944C476.354 201.304 475.154 198.844 474.674 196.564L479.534 194.224V244.444C479.534 247.084 478.634 249.244 476.834 250.924C475.154 252.724 473.054 253.624 470.534 253.624C467.894 253.624 465.734 252.724 464.054 250.924C462.374 249.244 461.534 247.084 461.534 244.444V131.764C461.534 129.244 462.374 127.084 464.054 125.284C465.734 123.484 467.894 122.584 470.534 122.584C473.054 122.584 475.154 123.484 476.834 125.284C478.634 127.084 479.534 129.244 479.534 131.764V144.184L476.654 142.564C477.014 140.284 478.154 137.944 480.074 135.544C481.994 133.024 484.394 130.684 487.274 128.524C490.274 126.364 493.634 124.624 497.354 123.304C501.194 121.984 505.154 121.324 509.234 121.324ZM507.254 137.884C501.494 137.884 496.454 139.324 492.134 142.204C487.934 144.964 484.634 148.744 482.234 153.544C479.834 158.344 478.634 163.864 478.634 170.104C478.634 176.224 479.834 181.804 482.234 186.844C484.634 191.764 487.934 195.664 492.134 198.544C496.454 201.304 501.494 202.684 507.254 202.684C512.894 202.684 517.814 201.304 522.014 198.544C526.214 195.664 529.514 191.764 531.914 186.844C534.434 181.804 535.694 176.224 535.694 170.104C535.694 163.984 534.434 158.524 531.914 153.724C529.514 148.804 526.214 144.964 522.014 142.204C517.814 139.324 512.894 137.884 507.254 137.884Z" fill="white"/>
<path d="M441.42 154.624C441.42 163.744 439.92 172.264 436.92 180.184C433.92 187.984 429.66 194.824 424.14 200.704C418.74 206.584 412.32 211.204 404.88 214.564C397.44 217.804 389.28 219.424 380.4 219.424C371.64 219.424 363.54 217.804 356.1 214.564C348.66 211.204 342.18 206.584 336.66 200.704C331.26 194.824 327.06 187.984 324.06 180.184C321.18 172.264 319.74 163.744 319.74 154.624C319.74 145.504 321.18 137.044 324.06 129.244C327.06 121.324 331.26 114.424 336.66 108.544C342.18 102.664 348.66 98.104 356.1 94.864C363.54 91.504 371.64 89.824 380.4 89.824C389.28 89.824 397.44 91.504 404.88 94.864C412.32 98.104 418.74 102.664 424.14 108.544C429.66 114.424 433.92 121.324 436.92 129.244C439.92 137.044 441.42 145.504 441.42 154.624ZM421.98 154.624C421.98 145.744 420.18 137.764 416.58 130.684C413.1 123.604 408.24 118.024 402 113.944C395.76 109.864 388.56 107.824 380.4 107.824C372.36 107.824 365.22 109.864 358.98 113.944C352.74 118.024 347.88 123.604 344.4 130.684C340.92 137.644 339.18 145.624 339.18 154.624C339.18 163.504 340.92 171.484 344.4 178.564C347.88 185.644 352.74 191.224 358.98 195.304C365.22 199.384 372.36 201.424 380.4 201.424C388.56 201.424 395.76 199.384 402 195.304C408.24 191.224 413.1 185.644 416.58 178.564C420.18 171.484 421.98 163.504 421.98 154.624Z" fill="white"/>
<defs>
<radialGradient id="paint0_radial_326_4760" cx="0" cy="0" r="1" gradientTransform="matrix(1.18806e-05 -336.095 375.05 -12.6009 151.973 327.248)" gradientUnits="userSpaceOnUse">
<stop stop-color="#2EE1DE"/>
<stop offset="0.936426" stop-color="#173D7B"/>
</radialGradient>
<linearGradient id="paint1_linear_326_4760" x1="227.445" y1="45.9968" x2="226.649" y2="97.7587" gradientUnits="userSpaceOnUse">
<stop stop-color="#173D7B" stop-opacity="0.2"/>
<stop offset="1" stop-color="#2EE1DE" stop-opacity="0"/>
</linearGradient>
<linearGradient id="paint2_linear_326_4760" x1="133.104" y1="208.76" x2="119.313" y2="282.892" gradientUnits="userSpaceOnUse">
<stop stop-color="#004799" stop-opacity="0"/>
<stop offset="1" stop-color="#2EE1DE"/>
</linearGradient>
</defs>
</svg>
