<svg width="170" height="92" viewBox="0 0 170 92" fill="none" xmlns="http://www.w3.org/2000/svg">
<path d="M0.107056 38.801C0.107056 22.1393 16.7688 0.0737305 46.0394 0.0737305C75.3101 0.0737305 82.8154 12.9828 83.8661 19.4374C82.3651 18.6869 78.4623 17.1858 74.8598 17.1858C70.3566 17.1858 61.3503 20.7883 61.3503 31.596C61.3503 46.0061 82.9655 72.1245 118.991 72.1245C155.016 72.1245 170.117 52.795 169.877 53.2112C163.932 63.5071 132.05 91.4882 74.8598 91.4882C17.6694 91.4882 0.107056 55.4628 0.107056 38.801Z" fill="url(#paint0_linear_40_37)"/>
<path d="M46.0397 0.57373C60.6043 0.573765 69.6876 3.78572 75.2457 7.74268C80.2633 11.315 82.4342 15.5131 83.1793 18.5747C81.2907 17.7725 77.9797 16.6861 74.86 16.686C72.4999 16.686 69.0111 17.6222 66.1041 19.9478C63.1766 22.2898 60.8502 26.0335 60.8502 31.5962C60.8503 39.0078 66.3743 49.2671 76.3395 57.647C86.3305 66.0485 100.853 72.6245 118.991 72.6245C137.098 72.6245 149.965 67.766 158.284 62.9448C161.438 61.1166 163.937 59.2931 165.818 57.7456C161.173 62.9023 153.018 69.6771 141.354 75.7671C125.56 84.0135 103.371 90.9878 74.86 90.9878C17.9271 90.9878 0.607217 55.1684 0.607056 38.8013C0.607056 22.4293 17.0313 0.57373 46.0397 0.57373Z" stroke="white" stroke-opacity="0.1"/>
<path d="M0.107056 38.8025C0.107056 22.1408 16.7688 0.0751953 46.0394 0.0751953C75.3101 0.0751953 82.8154 12.9843 83.8661 19.4388C69.9007 10.9534 47.8838 5.91461 26.7419 11.5796C5.60008 17.2445 0.107056 38.8025 0.107056 38.8025Z" fill="url(#paint1_linear_40_37)" fill-opacity="0.8"/>
<path d="M46.0397 0.575195C60.6043 0.575229 69.6876 3.78719 75.2457 7.74414C80.1832 11.2594 82.3638 15.3807 83.1422 18.4287C69.0373 10.2365 47.4105 5.52409 26.6129 11.0967C15.8891 13.9701 9.13924 20.8749 5.07874 27.04C3.08987 30.0598 1.74317 32.9078 0.885376 35.0283C3.14943 19.2677 19.2124 0.575195 46.0397 0.575195Z" stroke="white" stroke-opacity="0.1"/>
<defs>
<linearGradient id="paint0_linear_40_37" x1="117.266" y1="62.3115" x2="58.4947" y2="-37.6827" gradientUnits="userSpaceOnUse">
<stop stop-color="#22B4FA"/>
<stop offset="0.956731" stop-color="#1C9383"/>
</linearGradient>
<linearGradient id="paint1_linear_40_37" x1="5.92069" y1="28.0159" x2="78.3363" y2="12.2215" gradientUnits="userSpaceOnUse">
<stop stop-color="white" stop-opacity="0"/>
<stop offset="1" stop-color="#FFF989"/>
</linearGradient>
</defs>
</svg>
